ISO-10303-21;
HEADER;
FILE_DESCRIPTION (( 'STEP AP214' ),
    '1' );
FILE_NAME ('Cylinder.STEP',
    '2024-11-18T10:43:12',
    ( '' ),
    ( '' ),
    'SwSTEP 2.0',
    'SolidWorks 2023',
    '' );
FILE_SCHEMA (( 'AUTOMOTIVE_DESIGN' ));
ENDSEC;

DATA;
#1 = CARTESIAN_POINT ( 'NONE',  ( 22.47055696795204227, 21.54233737824767658, -1.158460182012073458 ) ) ;
#2 = CARTESIAN_POINT ( 'NONE',  ( 0.3817670586936938171, 22.06151761834285097, -24.99769303108709195 ) ) ;
#3 = CARTESIAN_POINT ( 'NONE',  ( 1.450000000000000178, 20.46065636448504677, 24.95791457634231136 ) ) ;
#4 = CARTESIAN_POINT ( 'NONE',  ( -22.45322916642504651, 20.45838077413024081, -1.449999999999921574 ) ) ;
#5 = FACE_OUTER_BOUND ( 'NONE', #104, .T. ) ;
#6 = CYLINDRICAL_SURFACE ( 'NONE', #806, 1.449999999999999956 ) ;
#7 = CARTESIAN_POINT ( 'NONE',  ( 24.99999543148434000, 22.09992123246242102, 0.09684885010563824836 ) ) ;
#8 = CARTESIAN_POINT ( 'NONE',  ( -1.449999999999999956, 20.64999999999999858, 22.45322916642504296 ) ) ;
#9 = CARTESIAN_POINT ( 'NONE',  ( -24.97344986746140094, 19.75917930020669644, 1.159601276739106845 ) ) ;
#10 = CARTESIAN_POINT ( 'NONE',  ( 22.49745800603515988, 19.23814780291336035, -0.3805919186860317605 ) ) ;
#11 = CARTESIAN_POINT ( 'NONE',  ( 0.3801945829896743456, 19.23803114359713007, -24.99771878736916619 ) ) ;
#12 = B_SPLINE_CURVE_WITH_KNOTS ( 'NONE', 3,
 ( #757, #900, #542, #752, #107, #678, #605, #111, #394, #44, #182, #666, #738, #90 ),
 .UNSPECIFIED., .F., .F.,
 ( 4, 2, 2, 2, 2, 2, 4 ),
 ( 0.000000000000000000, 0.0002834732476613686415, 0.0005669464953227372830, 0.0008504197429841060330, 0.001133892990645474566, 0.001700839485968211415, 0.002267785981290948698 ),
 .UNSPECIFIED. ) ;
#13 = DIRECTION ( 'NONE',  ( -0.000000000000000000, -1.000000000000000000, -0.000000000000000000 ) ) ;
#14 = CARTESIAN_POINT ( 'NONE',  ( 24.96022827213427675, 21.03196156469677547, -1.411478090150561915 ) ) ;
#15 = CARTESIAN_POINT ( 'NONE',  ( -1.411510902610181306, 20.26820939600234794, 22.45579871630673452 ) ) ;
#16 = ADVANCED_FACE ( 'NONE', ( #344 ), #759, .F. ) ;
#17 = CARTESIAN_POINT ( 'NONE',  ( 24.99775500781171544, 22.06263142102299568, -0.3783760861335026537 ) ) ;
#18 = CARTESIAN_POINT ( 'NONE',  ( 1.449999999999999956, 20.64999999999999858, -24.95791457634231136 ) ) ;
#19 = PRESENTATION_LAYER_ASSIGNMENT (  '', '', ( #254 ) ) ;
#20 = CARTESIAN_POINT ( 'NONE',  ( -1.449999999999999956, 20.64999999999999858, 24.95791457634231136 ) ) ;
#21 = CARTESIAN_POINT ( 'NONE',  ( 1.258676383296928991, 21.37607808654921016, -22.46482807847095486 ) ) ;
#22 = CARTESIAN_POINT ( 'NONE',  ( -22.45384226332058475, 20.84005662128004133, -1.440593114085388704 ) ) ;
#23 = ORIENTED_EDGE ( 'NONE', *, *, #152, .F. ) ;
#24 = CARTESIAN_POINT ( 'NONE',  ( -0.7292684646444818064, 21.91742303397929703, 24.98997103450376756 ) ) ;
#25 = CARTESIAN_POINT ( 'NONE',  ( 1.449999999999999956, 20.64999999999999858, 22.45322916642504296 ) ) ;
#26 = CARTESIAN_POINT ( 'NONE',  ( 0.7273481085529737156, 21.90792946667901120, 22.48837785730465910 ) ) ;
#27 = VERTEX_POINT ( 'NONE', #613 ) ;
#28 = CARTESIAN_POINT ( 'NONE',  ( -1.440589843365824629, 20.84009047997694708, 24.95846633518708302 ) ) ;
#29 = DIRECTION ( 'NONE',  ( 1.000000000000000000, -0.000000000000000000, -3.491481338843133750E-15 ) ) ;
#30 = EDGE_CURVE ( 'NONE', #270, #603, #731, .T. ) ;
#31 = DIRECTION ( 'NONE',  ( 0.000000000000000000, 0.000000000000000000, 1.000000000000000000 ) ) ;
#32 = ORIENTED_EDGE ( 'NONE', *, *, #367, .T. ) ;
#33 = ADVANCED_FACE ( 'NONE', ( #198 ), #632, .F. ) ;
#34 = LINE ( 'NONE', #734, #499 ) ;
#35 = ORIENTED_EDGE ( 'NONE', *, *, #42, .T. ) ;
#36 = ORIENTED_EDGE ( 'NONE', *, *, #636, .T. ) ;
#37 = EDGE_CURVE ( 'NONE', #166, #888, #820, .T. ) ;
#38 = VECTOR ( 'NONE', #911, 1000.000000000000000 ) ;
#39 = CARTESIAN_POINT ( 'NONE',  ( 0.9576010702382719009, 21.74300497512261998, 22.47971507399344304 ) ) ;
#40 = VERTEX_POINT ( 'NONE', #211 ) ;
#41 = AXIS2_PLACEMENT_3D ( 'NONE', #821, #742, #547 ) ;
#42 = EDGE_CURVE ( 'NONE', #886, #379, #355, .T. ) ;
#43 = AXIS2_PLACEMENT_3D ( 'NONE', #447, #458, #512 ) ;
#44 = CARTESIAN_POINT ( 'NONE',  ( -0.8911061442114303066, 21.80940622319045730, 22.48274619688037390 ) ) ;
#45 = CARTESIAN_POINT ( 'NONE',  ( -22.45322916642504651, 20.64999999999999858, -1.449999999999921352 ) ) ;
#46 = EDGE_LOOP ( 'NONE', ( #599, #36, #905, #23 ) ) ;
#47 = CARTESIAN_POINT ( 'NONE',  ( -1.449999999999999734, 20.55541837876630851, -22.45322916642503941 ) ) ;
#48 = AXIS2_PLACEMENT_3D ( 'NONE', #288, #803, #801 ) ;
#49 = CARTESIAN_POINT ( 'NONE',  ( 0.000000000000000000, 110.0000000000000000, 0.000000000000000000 ) ) ;
#50 = CARTESIAN_POINT ( 'NONE',  ( 22.50000998767489335, 22.10015498121320476, -0.1901758767498168690 ) ) ;
#51 = CARTESIAN_POINT ( 'NONE',  ( -22.45322916642503586, 20.64999999999999858, 1.450000000000078337 ) ) ;
#52 = ORIENTED_EDGE ( 'NONE', *, *, #195, .F. ) ;
#53 = CARTESIAN_POINT ( 'NONE',  ( 24.96835910689541649, 19.92359742888144325, -1.258498767866989665 ) ) ;
#54 = CARTESIAN_POINT ( 'NONE',  ( -2.304813613580882436E-16, 22.09999999999999787, -25.00000000000000000 ) ) ;
#55 = CARTESIAN_POINT ( 'NONE',  ( -24.97622873202896443, 21.60862671755550224, -1.092007409445094002 ) ) ;
#56 = VERTEX_POINT ( 'NONE', #719 ) ;
#57 = DIRECTION ( 'NONE',  ( 0.000000000000000000, 0.000000000000000000, 1.000000000000000000 ) ) ;
#58 = CARTESIAN_POINT ( 'NONE',  ( -24.98959805026393965, 19.39092837485024390, -0.7253979358227459207 ) ) ;
#59 = DIRECTION ( 'NONE',  ( 0.000000000000000000, 0.000000000000000000, 1.000000000000000000 ) ) ;
#60 = CARTESIAN_POINT ( 'NONE',  ( -22.45322916642503586, 20.64999999999999858, 1.450000000000078337 ) ) ;
#61 = ORIENTED_EDGE ( 'NONE', *, *, #779, .T. ) ;
#62 = CARTESIAN_POINT ( 'NONE',  ( 24.95791457634231492, 20.55417349089947265, -1.450000000000086775 ) ) ;
#63 = CARTESIAN_POINT ( 'NONE',  ( -24.99733914959259451, 19.24650251432830217, 0.3763302971391747631 ) ) ;
#64 = EDGE_CURVE ( 'NONE', #475, #270, #296, .T. ) ;
#65 = LINE ( 'NONE', #541, #360 ) ;
#66 = CARTESIAN_POINT ( 'NONE',  ( 22.48838638837022685, 21.90808991253645388, 0.7271144808401891479 ) ) ;
#67 = CARTESIAN_POINT ( 'NONE',  ( 1.412357178447563255, 21.02934200036963475, -24.96017946814422928 ) ) ;
#68 = ORIENTED_EDGE ( 'NONE', *, *, #629, .T. ) ;
#69 = CARTESIAN_POINT ( 'NONE',  ( 24.95847070821354308, 20.45923077212209407, 1.440515415882807293 ) ) ;
#70 = CARTESIAN_POINT ( 'NONE',  ( -24.98452710240405139, 19.49594403330494075, -0.8829599924620813445 ) ) ;
#71 = CARTESIAN_POINT ( 'NONE',  ( 22.45322916642503941, 20.84161922586975990, -1.450000000000078337 ) ) ;
#72 = CARTESIAN_POINT ( 'NONE',  ( 24.98954868776213800, 21.90809916601696727, 0.7270996903677445777 ) ) ;
#73 = CARTESIAN_POINT ( 'NONE',  ( -22.45322916642503586, 20.64999999999999858, 1.450000000000078337 ) ) ;
#74 = CARTESIAN_POINT ( 'NONE',  ( -0.9588129230738481334, 21.74184523614465547, -22.47966098401864343 ) ) ;
#75 = CARTESIAN_POINT ( 'NONE',  ( 22.45322916642503230, 20.64999999999999858, -1.450000000000078115 ) ) ;
#76 = CYLINDRICAL_SURFACE ( 'NONE', #611, 1.449999999999999956 ) ;
#77 = CARTESIAN_POINT ( 'NONE',  ( 24.97344986746140449, 21.54082069979329717, 1.159601276738932318 ) ) ;
#78 = CARTESIAN_POINT ( 'NONE',  ( -22.49938016869686663, 19.20953188716350013, 0.1910010189651437096 ) ) ;
#79 = CARTESIAN_POINT ( 'NONE',  ( 22.45384736995399066, 20.45922460613536131, 1.440514968523767037 ) ) ;
#80 = CARTESIAN_POINT ( 'NONE',  ( -22.47964286243460919, 19.55852982641097171, 0.9592324008344254027 ) ) ;
#81 = CARTESIAN_POINT ( 'NONE',  ( -24.95791457634230781, 20.64999999999999858, 1.450000000000086997 ) ) ;
#82 = CARTESIAN_POINT ( 'NONE',  ( -22.49704324137920253, 19.24650614072062993, 0.3763439388506161776 ) ) ;
#83 = LINE ( 'NONE', #616, #780 ) ;
#84 = DIRECTION ( 'NONE',  ( -0.000000000000000000, -1.000000000000000000, -0.000000000000000000 ) ) ;
#85 = CARTESIAN_POINT ( 'NONE',  ( -1.266739906552991179, 19.91959049219052602, 24.96799201445048055 ) ) ;
#86 = VECTOR ( 'NONE', #372, 1000.000000000000000 ) ;
#87 = B_SPLINE_CURVE_WITH_KNOTS ( 'NONE', 3,
 ( #630, #782, #926, #424, #418, #870, #707, #66, #188, #347, #769, #470, #687, #50, #116, #567, #139, #635, #121, #1, #713, #404, #71, #693 ),
 .UNSPECIFIED., .F., .F.,
 ( 4, 2, 2, 2, 2, 2, 2, 2, 2, 2, 2, 4 ),
 ( 0.004534535684257334949, 0.005101222633952422550, 0.005667909583647510151, 0.005951253058495057854, 0.006234596533342604691, 0.006517940008190153262, 0.006801283483037700098, 0.007367970432732795505, 0.007651313907580345811, 0.007934657382427896116, 0.008501344332123001932, 0.009068031281818109482 ),
 .UNSPECIFIED. ) ;
#88 = EDGE_LOOP ( 'NONE', ( #325, #445, #837, #689, #735, #158, #827, #237, #92, #374 ) ) ;
#89 = CARTESIAN_POINT ( 'NONE',  ( 24.95791457634231847, 20.64999999999999858, 1.449999999999912914 ) ) ;
#90 = CARTESIAN_POINT ( 'NONE',  ( 2.755455271706670665E-15, 22.09999999999999787, 22.50000000000000355 ) ) ;
#91 = CARTESIAN_POINT ( 'NONE',  ( -22.45322916642503941, 20.74583159383276865, -1.449999999999921352 ) ) ;
#92 = ORIENTED_EDGE ( 'NONE', *, *, #367, .F. ) ;
#93 = EDGE_CURVE ( 'NONE', #825, #663, #677, .T. ) ;
#94 = DIRECTION ( 'NONE',  ( -0.000000000000000000, -1.000000000000000000, -0.000000000000000000 ) ) ;
#95 = PRODUCT_CONTEXT ( 'NONE', #851, 'mechanical' ) ;
#96 = EDGE_CURVE ( 'NONE', #918, #475, #460, .T. ) ;
#97 = VERTEX_POINT ( 'NONE', #81 ) ;
#98 = FACE_BOUND ( 'NONE', #110, .T. ) ;
#99 = CARTESIAN_POINT ( 'NONE',  ( -25.00000000000009237, 20.64999999999999858, 8.728703347107864943E-14 ) ) ;
#100 = LINE ( 'NONE', #385, #817 ) ;
#101 = CARTESIAN_POINT ( 'NONE',  ( -1.449999999999999956, 20.64999999999999858, -24.95791457634231492 ) ) ;
#102 = VERTEX_POINT ( 'NONE', #673 ) ;
#103 = CARTESIAN_POINT ( 'NONE',  ( 6.147987464839955505E-24, 19.19999999999999929, -22.50000000000000355 ) ) ;
#104 = EDGE_LOOP ( 'NONE', ( #391, #754, #128, #446 ) ) ;
#105 = ADVANCED_FACE ( 'NONE', ( #98, #368 ), #169, .T. ) ;
#106 =( LENGTH_UNIT ( ) NAMED_UNIT ( * ) SI_UNIT ( .MILLI., .METRE. ) );
#107 = CARTESIAN_POINT ( 'NONE',  ( -1.375809855383889779, 21.11763802507782728, 22.45792684657396521 ) ) ;
#108 = CARTESIAN_POINT ( 'NONE',  ( 0.8843959212408525339, 21.80293784249086286, 22.48274933762369443 ) ) ;
#109 = ADVANCED_FACE ( 'NONE', ( #818 ), #843, .F. ) ;
#110 = EDGE_LOOP ( 'NONE', ( #231, #260 ) ) ;
#111 = CARTESIAN_POINT ( 'NONE',  ( -1.153113156147969054, 21.53420241318773876, 22.47049420130820252 ) ) ;
#112 = CARTESIAN_POINT ( 'NONE',  ( -24.98954979995799164, 21.90811294858030323, 0.7270340495660113644 ) ) ;
#113 = CARTESIAN_POINT ( 'NONE',  ( 0.000000000000000000, 20.64999999999999858, 25.00000000000000000 ) ) ;
#114 = CARTESIAN_POINT ( 'NONE',  ( 24.97344156828076933, 19.76598191829889828, -1.153252736947056212 ) ) ;
#115 = FACE_OUTER_BOUND ( 'NONE', #88, .T. ) ;
#116 = CARTESIAN_POINT ( 'NONE',  ( 22.49750484562736119, 22.06261894554025815, -0.3784141784450147372 ) ) ;
#117 = CARTESIAN_POINT ( 'NONE',  ( -24.98175350762995350, 21.74319718794887280, 0.9573833283336310451 ) ) ;
#118 = ORIENTED_EDGE ( 'NONE', *, *, #807, .T. ) ;
#119 = DIRECTION ( 'NONE',  ( 0.000000000000000000, 1.000000000000000000, 0.000000000000000000 ) ) ;
#120 = AXIS2_PLACEMENT_3D ( 'NONE', #49, #234, #610 ) ;
#121 = CARTESIAN_POINT ( 'NONE',  ( 22.47971103846788310, 21.74287110844538873, -0.9576438470573624961 ) ) ;
#122 = CARTESIAN_POINT ( 'NONE',  ( 0.1915101580797286263, 22.09999999999999787, -25.00000000000000355 ) ) ;
#123 = ORIENTED_EDGE ( 'NONE', *, *, #488, .F. ) ;
#124 = CARTESIAN_POINT ( 'NONE',  ( -1.860121582852140459E-16, 22.09999999999999787, -22.50000000000000355 ) ) ;
#125 = CARTESIAN_POINT ( 'NONE',  ( -24.96794968504276113, 19.92099546792112719, 1.267564421828548227 ) ) ;
#126 = CARTESIAN_POINT ( 'NONE',  ( -1.440535927575624875, 20.45936211806850125, -24.95846952718692080 ) ) ;
#127 = CARTESIAN_POINT ( 'NONE',  ( -24.98448434049470634, 21.80312911125771436, 0.8841492822955899777 ) ) ;
#128 = ORIENTED_EDGE ( 'NONE', *, *, #692, .F. ) ;
#129 = CARTESIAN_POINT ( 'NONE',  ( 24.96213863105174013, 20.18248482956550305, -1.375850229300437544 ) ) ;
#130 = CARTESIAN_POINT ( 'NONE',  ( -1.411970618699136093, 21.03017370796401764, -22.45576945038454042 ) ) ;
#131 = VECTOR ( 'NONE', #508, 1000.000000000000000 ) ;
#132 = DIRECTION ( 'NONE',  ( 0.000000000000000000, 0.000000000000000000, -1.000000000000000000 ) ) ;
#133 = CARTESIAN_POINT ( 'NONE',  ( 5.659485349281843945E-24, 19.19999999999999929, -25.00000000000000000 ) ) ;
#134 = CARTESIAN_POINT ( 'NONE',  ( -22.45791393354137355, 21.11702381800047590, 1.376019811150223759 ) ) ;
#135 = DIRECTION ( 'NONE',  ( -0.000000000000000000, -0.000000000000000000, -1.000000000000000000 ) ) ;
#136 = CARTESIAN_POINT ( 'NONE',  ( -0.8899871240258309113, 19.48937013642187210, -22.48279963502425360 ) ) ;
#137 = CARTESIAN_POINT ( 'NONE',  ( -0.3755105531787840678, 22.05371862343023537, -22.49705730708389950 ) ) ;
#138 = AXIS2_PLACEMENT_3D ( 'NONE', #371, #660, #380 ) ;
#139 = CARTESIAN_POINT ( 'NONE',  ( 22.48844141796502072, 21.90906585343856250, -0.7254083888597689933 ) ) ;
#140 = CARTESIAN_POINT ( 'NONE',  ( -0.3754948305231238237, 22.05372259493586284, -24.99735182823902591 ) ) ;
#141 = CARTESIAN_POINT ( 'NONE',  ( 22.47048740073527284, 19.76597147852925929, -1.153244608352729905 ) ) ;
#142 = DIRECTION ( 'NONE',  ( -0.000000000000000000, -0.000000000000000000, 1.000000000000000000 ) ) ;
#143 = CARTESIAN_POINT ( 'NONE',  ( -1.449999999999999956, 20.64999999999999858, -22.45322916642504296 ) ) ;
#144 = CARTESIAN_POINT ( 'NONE',  ( 24.99190774077898425, 21.95356071929167641, -0.6420891290737205104 ) ) ;
#145 = CARTESIAN_POINT ( 'NONE',  ( 0.000000000000000000, 20.64999999999999858, -25.00000000000000000 ) ) ;
#146 = CARTESIAN_POINT ( 'NONE',  ( -25.00000905255602390, 19.19984392139582141, -0.1901380239088411306 ) ) ;
#147 = CARTESIAN_POINT ( 'NONE',  ( 22.45384226332058120, 20.45994337871995228, -1.440593114085545468 ) ) ;
#148 = CARTESIAN_POINT ( 'NONE',  ( -22.48838638837022685, 19.39191008746354683, 0.7271144808403455784 ) ) ;
#149 = CARTESIAN_POINT ( 'NONE',  ( -1.449999999999999956, 20.64999999999999858, 24.95791457634231136 ) ) ;
#150 = CARTESIAN_POINT ( 'NONE',  ( 22.46442494925117472, 19.91942467776953407, 1.266857043070487965 ) ) ;
#151 = CARTESIAN_POINT ( 'NONE',  ( 1.449999999999999734, 20.55427555583130328, -24.95791457634230426 ) ) ;
#152 = EDGE_CURVE ( 'NONE', #811, #468, #327, .T. ) ;
#153 = CARTESIAN_POINT ( 'NONE',  ( 22.49100579607546990, 19.34648299852919706, 0.6421610678807198047 ) ) ;
#154 = CARTESIAN_POINT ( 'NONE',  ( 1.375808875368712991, 20.18237439913202635, -24.96214088485830018 ) ) ;
#155 = AXIS2_PLACEMENT_3D ( 'NONE', #571, #285, #873 ) ;
#156 = FACE_BOUND ( 'NONE', #168, .T. ) ;
#157 = DIRECTION ( 'NONE',  ( -2.392722035830078873E-15, 0.000000000000000000, -1.000000000000000000 ) ) ;
#158 = ORIENTED_EDGE ( 'NONE', *, *, #853, .T. ) ;
#159 = AXIS2_PLACEMENT_3D ( 'NONE', #99, #29, #157 ) ;
#160 = CARTESIAN_POINT ( 'NONE',  ( -0.9588073626590800647, 21.74185058923551850, -24.98169664725130446 ) ) ;
#161 = FACE_OUTER_BOUND ( 'NONE', #401, .T. ) ;
#162 = CARTESIAN_POINT ( 'NONE',  ( 1.450000000000000178, 20.84128104375336576, -22.45322916642504296 ) ) ;
#163 = LINE ( 'NONE', #804, #319 ) ;
#164 = CARTESIAN_POINT ( 'NONE',  ( -22.46483872010699301, 21.37641663017161520, -1.258490537460694503 ) ) ;
#165 = CIRCLE ( 'NONE', #120, 22.50000000000000355 ) ;
#166 = VERTEX_POINT ( 'NONE', #89 ) ;
#167 = DIRECTION ( 'NONE',  ( -0.000000000000000000, -1.000000000000000000, -0.000000000000000000 ) ) ;
#168 = EDGE_LOOP ( 'NONE', ( #816, #258 ) ) ;
#169 = CYLINDRICAL_SURFACE ( 'NONE', #41, 25.00000000000000000 ) ;
#170 = CARTESIAN_POINT ( 'NONE',  ( -1.449999999999999956, 20.64999999999999858, -24.95791457634231492 ) ) ;
#171 = CARTESIAN_POINT ( 'NONE',  ( 1.449999999999999956, 20.74462296980362908, 24.95791457634231492 ) ) ;
#172 = ADVANCED_FACE ( 'NONE', ( #156, #161 ), #914, .F. ) ;
#173 = ORIENTED_EDGE ( 'NONE', *, *, #488, .T. ) ;
#174 = ORIENTED_EDGE ( 'NONE', *, *, #316, .T. ) ;
#175 = LINE ( 'NONE', #813, #86 ) ;
#176 = ORIENTED_EDGE ( 'NONE', *, *, #37, .F. ) ;
#177 = CARTESIAN_POINT ( 'NONE',  ( 0.1893472328053664999, 19.20000000000000639, -22.50000000000000000 ) ) ;
#178 = CARTESIAN_POINT ( 'NONE',  ( 0.09457649989046121308, 22.09999999999999787, 25.00000000000000711 ) ) ;
#179 = CARTESIAN_POINT ( 'NONE',  ( 1.450000000000000178, 20.74462515210728952, 22.45322916642504651 ) ) ;
#180 = ORIENTED_EDGE ( 'NONE', *, *, #64, .T. ) ;
#181 = CARTESIAN_POINT ( 'NONE',  ( 24.96056579012875432, 20.27458907546041544, -1.403743576657723091 ) ) ;
#182 = CARTESIAN_POINT ( 'NONE',  ( -0.7292816082666774280, 21.91741526951132712, 22.48885581649626175 ) ) ;
#183 = CARTESIAN_POINT ( 'NONE',  ( -2.304813613580882436E-16, 22.09999999999999787, -25.00000000000000000 ) ) ;
#184 = ORIENTED_EDGE ( 'NONE', *, *, #193, .T. ) ;
#185 = FACE_BOUND ( 'NONE', #906, .T. ) ;
#186 = ORIENTED_EDGE ( 'NONE', *, *, #464, .T. ) ;
#187 = CARTESIAN_POINT ( 'NONE',  ( 0.000000000000000000, 30.00000000000000000, -22.50000000000000355 ) ) ;
#188 = CARTESIAN_POINT ( 'NONE',  ( 22.49095607273358155, 21.95266140925619780, 0.6438848239855823330 ) ) ;
#189 = CARTESIAN_POINT ( 'NONE',  ( -24.95846608363433106, 20.84004748575755173, -1.440594094263965674 ) ) ;
#190 = ORIENTED_EDGE ( 'NONE', *, *, #931, .F. ) ;
#191 = CARTESIAN_POINT ( 'NONE',  ( 24.97341858125993497, 19.75981870506662119, 1.160486526674004759 ) ) ;
#192 = CARTESIAN_POINT ( 'NONE',  ( -1.860121582852140459E-16, 22.09999999999999787, -22.50000000000000355 ) ) ;
#193 = EDGE_CURVE ( 'NONE', #918, #897, #83, .T. ) ;
#194 = DIRECTION ( 'NONE',  ( 0.000000000000000000, 1.000000000000000000, 0.000000000000000000 ) ) ;
#195 = EDGE_CURVE ( 'NONE', #740, #771, #584, .T. ) ;
#196 = CARTESIAN_POINT ( 'NONE',  ( -1.303361947206797655, 20.00752762895938375, -24.96602835796569053 ) ) ;
#197 = CARTESIAN_POINT ( 'NONE',  ( -25.00000195432079053, 22.10003369518804917, 0.09407836044048999147 ) ) ;
#198 = FACE_OUTER_BOUND ( 'NONE', #455, .T. ) ;
#199 = CARTESIAN_POINT ( 'NONE',  ( -0.1912810935565065207, 19.20000000000000639, 22.50000000000000711 ) ) ;
#200 = CARTESIAN_POINT ( 'NONE',  ( -24.98168009329911854, 19.55853030592677300, 0.9592330618617274096 ) ) ;
#201 = CARTESIAN_POINT ( 'NONE',  ( 0.6431477402876945026, 19.34697052419337382, 22.49097744559571765 ) ) ;
#202 = CARTESIAN_POINT ( 'NONE',  ( -22.50000217560175031, 22.10003375933953507, 0.09408257723733373656 ) ) ;
#203 = DIRECTION ( 'NONE',  ( -1.000000000000000000, 0.000000000000000000, 0.000000000000000000 ) ) ;
#204 = CARTESIAN_POINT ( 'NONE',  ( 24.98996188929011808, 19.38275557676799465, -0.7295676485599768002 ) ) ;
#205 = CARTESIAN_POINT ( 'NONE',  ( -24.99190774077899491, 19.34643928070831720, -0.6420891290735439849 ) ) ;
#206 = EDGE_CURVE ( 'NONE', #603, #270, #536, .T. ) ;
#207 = AXIS2_PLACEMENT_3D ( 'NONE', #113, #860, #203 ) ;
#208 = EDGE_CURVE ( 'NONE', #56, #245, #913, .T. ) ;
#209 = CARTESIAN_POINT ( 'NONE',  ( 0.000000000000000000, 110.0000000000000000, 0.000000000000000000 ) ) ;
#210 = CARTESIAN_POINT ( 'NONE',  ( -0.7265527709400269041, 21.90841377064923279, -24.98956462302870563 ) ) ;
#211 = CARTESIAN_POINT ( 'NONE',  ( 0.000000000000000000, 110.0000000000000000, -25.00000000000000000 ) ) ;
#212 = CARTESIAN_POINT ( 'NONE',  ( -22.45576716162548081, 20.26998498326823039, 1.412004286300450717 ) ) ;
#213 = LINE ( 'NONE', #558, #282 ) ;
#214 = VECTOR ( 'NONE', #167, 1000.000000000000000 ) ;
#215 = SURFACE_STYLE_FILL_AREA ( #429 ) ;
#216 = CARTESIAN_POINT ( 'NONE',  ( 24.97350390260789155, 21.54232477796357514, -1.158473130591943567 ) ) ;
#217 = CARTESIAN_POINT ( 'NONE',  ( -22.48273757897856484, 19.49728280979001482, 0.8847196028506064680 ) ) ;
#218 = CARTESIAN_POINT ( 'NONE',  ( -24.96022827213427675, 20.26803843530321814, -1.411478090150386722 ) ) ;
#219 = CARTESIAN_POINT ( 'NONE',  ( 24.99944224689437178, 22.09046981514346442, 0.1909879485519361819 ) ) ;
#220 = CARTESIAN_POINT ( 'NONE',  ( 0.8912179012308519832, 19.49068741544255445, -24.98446835287651524 ) ) ;
#221 = MANIFOLD_SOLID_BREP ( 'CirPattern1', #826 ) ;
#222 = CARTESIAN_POINT ( 'NONE',  ( 22.47972415281214253, 19.55680824687536656, 0.9573897386629512951 ) ) ;
#223 = CARTESIAN_POINT ( 'NONE',  ( -22.46438376362424094, 19.92097978410128079, 1.267555538145553884 ) ) ;
#224 = CARTESIAN_POINT ( 'NONE',  ( -1.411517613308475250, 20.26823296727937063, 24.96022582533732503 ) ) ;
#225 = CARTESIAN_POINT ( 'NONE',  ( -0.8841918960070359601, 21.80312134580699990, -24.98448365823325190 ) ) ;
#226 = ADVANCED_FACE ( 'NONE', ( #622, #393 ), #685, .T. ) ;
#227 = CARTESIAN_POINT ( 'NONE',  ( 24.98168009329912209, 21.74146969407322061, 0.9592330618615525495 ) ) ;
#228 = CARTESIAN_POINT ( 'NONE',  ( -22.45580141718207301, 20.26801626289494607, -1.411471652449405090 ) ) ;
#229 = CARTESIAN_POINT ( 'NONE',  ( 0.6431245930646487530, 19.34695950536764641, 24.99188057198578861 ) ) ;
#230 = FACE_OUTER_BOUND ( 'NONE', #46, .T. ) ;
#231 = ORIENTED_EDGE ( 'NONE', *, *, #692, .T. ) ;
#232 = CARTESIAN_POINT ( 'NONE',  ( -1.258413883282513135, 21.37655257189002356, 24.96836343417739812 ) ) ;
#233 = CARTESIAN_POINT ( 'NONE',  ( 0.3817906435131568355, 22.06151091031693667, -22.49743632564206663 ) ) ;
#234 = DIRECTION ( 'NONE',  ( 0.000000000000000000, 1.000000000000000000, 0.000000000000000000 ) ) ;
#235 = ORIENTED_EDGE ( 'NONE', *, *, #779, .F. ) ;
#236 =( GEOMETRIC_REPRESENTATION_CONTEXT ( 3 ) GLOBAL_UNCERTAINTY_ASSIGNED_CONTEXT ( ( #722 ) ) GLOBAL_UNIT_ASSIGNED_CONTEXT ( ( #106, #890, #658 ) ) REPRESENTATION_CONTEXT ( 'NONE', 'WORKASPACE' ) );
#237 = ORIENTED_EDGE ( 'NONE', *, *, #712, .F. ) ;
#238 = CARTESIAN_POINT ( 'NONE',  ( 1.449999999999999956, 20.64999999999999858, -22.45322916642504296 ) ) ;
#239 = CARTESIAN_POINT ( 'NONE',  ( 1.449999999999999956, 20.64999999999999858, 24.95791457634231492 ) ) ;
#240 = VERTEX_POINT ( 'NONE', #609 ) ;
#241 = ORIENTED_EDGE ( 'NONE', *, *, #629, .F. ) ;
#242 = FILL_AREA_STYLE_COLOUR ( '', #659 ) ;
#243 = CARTESIAN_POINT ( 'NONE',  ( 2.755455297896063857E-15, 19.19999999999999929, 22.50000000000000355 ) ) ;
#244 = CARTESIAN_POINT ( 'NONE',  ( 1.376059010711279562, 21.11690468642026985, 24.96212707966029143 ) ) ;
#245 = VERTEX_POINT ( 'NONE', #699 ) ;
#246 = ORIENTED_EDGE ( 'NONE', *, *, #712, .T. ) ;
#247 = DIRECTION ( 'NONE',  ( 1.000000000000000000, 0.000000000000000000, 0.000000000000000000 ) ) ;
#248 = CARTESIAN_POINT ( 'NONE',  ( 0.000000000000000000, 110.0000000000000000, 0.000000000000000000 ) ) ;
#249 = EDGE_LOOP ( 'NONE', ( #544, #35, #517, #550, #518, #672 ) ) ;
#250 = CARTESIAN_POINT ( 'NONE',  ( 1.258480323072443507, 19.92355566525439414, -22.46483940588006689 ) ) ;
#251 = CARTESIAN_POINT ( 'NONE',  ( 1.160630104068207658, 21.53998679933346239, 22.47045385015907115 ) ) ;
#252 = ORIENTED_EDGE ( 'NONE', *, *, #876, .T. ) ;
#253 = CARTESIAN_POINT ( 'NONE',  ( -0.3765401785602767171, 19.24654280818543839, -22.49704091786665217 ) ) ;
#254 = STYLED_ITEM ( 'NONE', ( #718 ), #221 ) ;
#255 = PRODUCT_DEFINITION ( 'UNKNOWN', '', #572, #340 ) ;
#256 = ORIENTED_EDGE ( 'NONE', *, *, #531, .T. ) ;
#257 = CARTESIAN_POINT ( 'NONE',  ( -24.95791457634230781, 20.64999999999999858, 1.450000000000086997 ) ) ;
#258 = ORIENTED_EDGE ( 'NONE', *, *, #828, .F. ) ;
#259 = CARTESIAN_POINT ( 'NONE',  ( 0.000000000000000000, 110.0000000000000000, -22.50000000000000355 ) ) ;
#260 = ORIENTED_EDGE ( 'NONE', *, *, #37, .T. ) ;
#261 = DIRECTION ( 'NONE',  ( -0.000000000000000000, -0.000000000000000000, -1.000000000000000000 ) ) ;
#262 = FACE_OUTER_BOUND ( 'NONE', #249, .T. ) ;
#263 = CARTESIAN_POINT ( 'NONE',  ( -22.49533336187400678, 22.02616783709860115, 0.4665720677029832619 ) ) ;
#264 = ORIENTED_EDGE ( 'NONE', *, *, #423, .T. ) ;
#265 = ADVANCED_FACE ( 'NONE', ( #115, #339 ), #560, .F. ) ;
#266 = CARTESIAN_POINT ( 'NONE',  ( 2.755455298081545172E-15, 30.00000000000000000, 22.50000000000000355 ) ) ;
#267 = CARTESIAN_POINT ( 'NONE',  ( -0.9581139547955099811, 19.55754459959102576, 24.98172328817528509 ) ) ;
#268 = CARTESIAN_POINT ( 'NONE',  ( 0.09573872067854831414, 19.20000000000000284, 22.50000000000000711 ) ) ;
#269 = CARTESIAN_POINT ( 'NONE',  ( -22.47358480056754715, 21.60863183725304637, -1.092002441072774443 ) ) ;
#270 = VERTEX_POINT ( 'NONE', #706 ) ;
#271 = ADVANCED_BREP_SHAPE_REPRESENTATION ( 'Cylinder', ( #221, #591 ), #236 ) ;
#272 = CARTESIAN_POINT ( 'NONE',  ( 24.95791457634231847, 20.55535543989997294, 1.449999999999913136 ) ) ;
#273 = CARTESIAN_POINT ( 'NONE',  ( -0.7265672009943056064, 21.90840532802339524, -22.48840413001815364 ) ) ;
#274 = CARTESIAN_POINT ( 'NONE',  ( -1.152944481343564531, 19.76561234927689625, -24.97345553552737840 ) ) ;
#275 = EDGE_CURVE ( 'NONE', #40, #676, #65, .T. ) ;
#276 = CARTESIAN_POINT ( 'NONE',  ( -22.48838764737244134, 21.90810425832129127, 0.7270486192620693178 ) ) ;
#277 = VERTEX_POINT ( 'NONE', #762 ) ;
#278 = CARTESIAN_POINT ( 'NONE',  ( 24.98954979995799874, 19.39188705141969038, 0.7270340495658369484 ) ) ;
#279 = CARTESIAN_POINT ( 'NONE',  ( -24.99775500781171189, 19.23736857897700148, -0.3783760861333259062 ) ) ;
#280 = CARTESIAN_POINT ( 'NONE',  ( 0.3754038070851379305, 19.24625127511436062, 22.49705918861315368 ) ) ;
#281 = CARTESIAN_POINT ( 'NONE',  ( -22.47972415281213543, 21.74319175312463415, 0.9573897386631082806 ) ) ;
#282 = VECTOR ( 'NONE', #721, 1000.000000000000000 ) ;
#283 = CARTESIAN_POINT ( 'NONE',  ( 1.411968863954208508, 20.26980547926989118, 24.96020002859057030 ) ) ;
#284 = CARTESIAN_POINT ( 'NONE',  ( -1.450000000000000400, 20.45847907112460717, 22.45322916642504296 ) ) ;
#285 = DIRECTION ( 'NONE',  ( 1.000000000000000000, -0.000000000000000000, -3.491481338843133750E-15 ) ) ;
#286 = CARTESIAN_POINT ( 'NONE',  ( 0.9587587274178883678, 19.55810936037872239, 22.47966325548202349 ) ) ;
#287 = CARTESIAN_POINT ( 'NONE',  ( 22.47358480056753649, 19.69136816274695789, -1.092002441072930985 ) ) ;
#288 = CARTESIAN_POINT ( 'NONE',  ( 0.000000000000000000, 110.0000000000000000, 0.000000000000000000 ) ) ;
#289 = CARTESIAN_POINT ( 'NONE',  ( -24.99944224689437178, 19.20953018485652919, 0.1909879485521104037 ) ) ;
#290 = VECTOR ( 'NONE', #311, 1000.000000000000000 ) ;
#291 = CARTESIAN_POINT ( 'NONE',  ( 25.00000905255602390, 22.10015607860418285, -0.1901380239090161850 ) ) ;
#292 = CARTESIAN_POINT ( 'NONE',  ( -0.7260783437189491929, 19.39132376183256312, 22.48841957373371159 ) ) ;
#293 = CARTESIAN_POINT ( 'NONE',  ( 22.48884563634356937, 19.38276365724765427, -0.7295813091048962695 ) ) ;
#294 = CARTESIAN_POINT ( 'NONE',  ( 0.1893436391901970051, 19.20000000000000639, -25.00000000000000000 ) ) ;
#295 = EDGE_CURVE ( 'NONE', #240, #740, #165, .T. ) ;
#296 = LINE ( 'NONE', #643, #131 ) ;
#297 = CARTESIAN_POINT ( 'NONE',  ( -22.47971103846787955, 19.55712889155461198, -0.9576438470572056216 ) ) ;
#298 = B_SPLINE_CURVE_WITH_KNOTS ( 'NONE', 3,
 ( #570, #294, #11, #730, #220, #720, #644, #506, #575, #154, #716, #872, #151, #503 ),
 .UNSPECIFIED., .F., .F.,
 ( 4, 2, 2, 2, 2, 2, 4 ),
 ( 0.004534312687284889135, 0.005101265027756256287, 0.005668217368227624307, 0.005951693538463311353, 0.006235169708698999266, 0.006518645878934687179, 0.006802122049170374225 ),
 .UNSPECIFIED. ) ;
#299 = MECHANICAL_DESIGN_GEOMETRIC_PRESENTATION_REPRESENTATION (  '', ( #254 ), #500 ) ;
#300 = DIRECTION ( 'NONE',  ( -2.392722035830078873E-15, 0.000000000000000000, -1.000000000000000000 ) ) ;
#301 = EDGE_CURVE ( 'NONE', #245, #918, #691, .T. ) ;
#302 = CARTESIAN_POINT ( 'NONE',  ( -1.153121520306459313, 21.53419166517464234, 24.97344767632638352 ) ) ;
#303 = CARTESIAN_POINT ( 'NONE',  ( 0.8919445478113496861, 21.80874601255512957, -22.48271202494628440 ) ) ;
#304 = CARTESIAN_POINT ( 'NONE',  ( -22.45617634195697931, 21.02542646987014052, -1.403739650135831241 ) ) ;
#305 = ORIENTED_EDGE ( 'NONE', *, *, #798, .F. ) ;
#306 = DIRECTION ( 'NONE',  ( 1.000000000000000000, -0.000000000000000000, -3.491481338843133750E-15 ) ) ;
#307 = CARTESIAN_POINT ( 'NONE',  ( 1.449999999999999956, 20.64999999999999858, -22.45322916642504296 ) ) ;
#308 = EDGE_LOOP ( 'NONE', ( #378, #174 ) ) ;
#309 = EDGE_LOOP ( 'NONE', ( #387, #750, #761, #186 ) ) ;
#310 = CARTESIAN_POINT ( 'NONE',  ( -1.403722605715626015, 21.02549478503645020, 24.96056697568544180 ) ) ;
#311 = DIRECTION ( 'NONE',  ( 1.000000000000000000, -0.000000000000000000, -3.491481338843133750E-15 ) ) ;
#312 = ORIENTED_EDGE ( 'NONE', *, *, #206, .T. ) ;
#313 = CARTESIAN_POINT ( 'NONE',  ( -1.860121582852140459E-16, 22.09999999999999787, -22.50000000000000355 ) ) ;
#314 = LINE ( 'NONE', #462, #290 ) ;
#315 = ORIENTED_EDGE ( 'NONE', *, *, #275, .F. ) ;
#316 = EDGE_CURVE ( 'NONE', #840, #40, #686, .T. ) ;
#317 = CARTESIAN_POINT ( 'NONE',  ( 1.091890988679480756, 19.69124167013331572, -22.47359022863764366 ) ) ;
#318 = ORIENTED_EDGE ( 'NONE', *, *, #656, .F. ) ;
#319 = VECTOR ( 'NONE', #755, 1000.000000000000000 ) ;
#320 = VECTOR ( 'NONE', #426, 1000.000000000000000 ) ;
#321 = CARTESIAN_POINT ( 'NONE',  ( 0.09458164773231877986, 22.09999999999999432, 22.49999999999999645 ) ) ;
#322 = ORIENTED_EDGE ( 'NONE', *, *, #275, .T. ) ;
#323 =( NAMED_UNIT ( * ) SI_UNIT ( $, .STERADIAN. ) SOLID_ANGLE_UNIT ( ) );
#324 = CARTESIAN_POINT ( 'NONE',  ( -22.47046109557001259, 21.54017006118122879, 1.160495818762258491 ) ) ;
#325 = ORIENTED_EDGE ( 'NONE', *, *, #361, .F. ) ;
#326 = CARTESIAN_POINT ( 'NONE',  ( 24.99190605620334793, 19.34647252640646897, 0.6421392658533883191 ) ) ;
#327 = LINE ( 'NONE', #812, #681 ) ;
#328 = CARTESIAN_POINT ( 'NONE',  ( -1.376040227482038247, 20.18305631460697214, -24.96212806690417452 ) ) ;
#329 = CARTESIAN_POINT ( 'NONE',  ( 1.303190251031178581, 21.29283237146746899, -24.96603739362711849 ) ) ;
#330 = ORIENTED_EDGE ( 'NONE', *, *, #316, .F. ) ;
#331 = CARTESIAN_POINT ( 'NONE',  ( 24.95791457634231847, 20.64999999999999858, 1.449999999999912914 ) ) ;
#332 = CARTESIAN_POINT ( 'NONE',  ( -0.6428325061821944519, 19.34680981205025674, 24.99188837023750054 ) ) ;
#333 = CARTESIAN_POINT ( 'NONE',  ( 0.7264446658294463344, 19.39151986445130404, 22.48840825758085060 ) ) ;
#334 = CARTESIAN_POINT ( 'NONE',  ( -24.98996188929011453, 21.91724442323200606, -0.7295676485598023842 ) ) ;
#335 = ORIENTED_EDGE ( 'NONE', *, *, #423, .F. ) ;
#336 = CARTESIAN_POINT ( 'NONE',  ( 24.98175350762996061, 19.55680281205112436, 0.9573833283334564070 ) ) ;
#337 = CARTESIAN_POINT ( 'NONE',  ( -24.98174180462081395, 19.55712069436376410, -0.9576354730426803741 ) ) ;
#338 = EDGE_CURVE ( 'NONE', #663, #166, #314, .T. ) ;
#339 = FACE_BOUND ( 'NONE', #615, .T. ) ;
#340 = PRODUCT_DEFINITION_CONTEXT ( 'detailed design', #535, 'design' ) ;
#341 = B_SPLINE_CURVE_WITH_KNOTS ( 'NONE', 3,
 ( #620, #47, #710, #480, #838, #684, #466, #760, #639, #136, #421, #557, #253, #416, #848, #614 ),
 .UNSPECIFIED., .F., .F.,
 ( 4, 2, 2, 2, 2, 2, 2, 4 ),
 ( 0.002267786115632897722, 0.002551129831228603814, 0.002834473546824309471, 0.003117817262420015563, 0.003401160978015721655, 0.003967848409207132970, 0.004251192124802839062, 0.004534535840398545153 ),
 .UNSPECIFIED. ) ;
#342 = DIRECTION ( 'NONE',  ( -0.000000000000000000, -0.000000000000000000, 1.000000000000000000 ) ) ;
#343 = CARTESIAN_POINT ( 'NONE',  ( -24.95847070821353952, 20.84076922787791020, 1.440515415882981598 ) ) ;
#344 = FACE_OUTER_BOUND ( 'NONE', #589, .T. ) ;
#345 = CARTESIAN_POINT ( 'NONE',  ( 24.98446411297642555, 19.49077566945156548, -0.8913363086077006336 ) ) ;
#346 = CARTESIAN_POINT ( 'NONE',  ( -1.267415432139601394, 21.37928128912725612, -22.46439184040528048 ) ) ;
#347 = CARTESIAN_POINT ( 'NONE',  ( 22.49529239376955658, 22.02550047717927484, 0.4685219856142413541 ) ) ;
#348 = CARTESIAN_POINT ( 'NONE',  ( -24.96056579012876497, 21.02541092453957816, -1.403743576657549008 ) ) ;
#349 = CARTESIAN_POINT ( 'NONE',  ( 1.449999999999999956, 20.64999999999999858, 24.95791457634231492 ) ) ;
#350 = CARTESIAN_POINT ( 'NONE',  ( 24.99999607526473255, 19.20006766785371610, -0.1897104439199874537 ) ) ;
#351 = CARTESIAN_POINT ( 'NONE',  ( -24.95791457634231847, 20.45839080608687865, -1.449999999999913136 ) ) ;
#352 = B_SPLINE_CURVE_WITH_KNOTS ( 'NONE', 3,
 ( #307, #162, #661, #665, #21, #829, #809, #303, #822, #233, #587, #313 ),
 .UNSPECIFIED., .F., .F.,
 ( 4, 2, 2, 2, 2, 4 ),
 ( 0.006802446632342191817, 0.007368842885576912596, 0.007652041012194272553, 0.007935239138811632509, 0.008501635392046354156, 0.009068031645281074068 ),
 .UNSPECIFIED. ) ;
#353 = LINE ( 'NONE', #647, #392 ) ;
#354 = CARTESIAN_POINT ( 'NONE',  ( -1.449999999999999956, 20.64999999999999858, -24.95791457634231492 ) ) ;
#355 = LINE ( 'NONE', #789, #320 ) ;
#356 = CARTESIAN_POINT ( 'NONE',  ( -1.158746327670965748, 19.75805585188580693, 22.47054146380627415 ) ) ;
#357 = CARTESIAN_POINT ( 'NONE',  ( -24.98954868776213090, 19.39190083398302633, 0.7270996903679189938 ) ) ;
#358 = CARTESIAN_POINT ( 'NONE',  ( 24.95791457634230781, 20.83924583645225326, 1.449999999999912692 ) ) ;
#359 = FACE_OUTER_BOUND ( 'NONE', #668, .T. ) ;
#360 = VECTOR ( 'NONE', #469, 1000.000000000000000 ) ;
#361 = EDGE_CURVE ( 'NONE', #240, #398, #100, .T. ) ;
#362 = CARTESIAN_POINT ( 'NONE',  ( 24.96800161662044815, 21.38075575086066138, -1.266554802787758449 ) ) ;
#363 = CARTESIAN_POINT ( 'NONE',  ( -22.45322916642503586, 20.46074985476537478, 1.450000000000078337 ) ) ;
#364 = EDGE_CURVE ( 'NONE', #277, #398, #12, .T. ) ;
#365 = CARTESIAN_POINT ( 'NONE',  ( 24.95791457634230781, 20.64999999999999858, -1.450000000000086775 ) ) ;
#366 = CARTESIAN_POINT ( 'NONE',  ( -1.266729868806242054, 19.91957373201504922, 22.46443087315912024 ) ) ;
#367 = EDGE_CURVE ( 'NONE', #897, #904, #467, .T. ) ;
#368 = FACE_OUTER_BOUND ( 'NONE', #604, .T. ) ;
#369 = CARTESIAN_POINT ( 'NONE',  ( -22.48844141796502782, 19.39093414656143466, -0.7254083888596123408 ) ) ;
#370 = EDGE_CURVE ( 'NONE', #886, #27, #389, .T. ) ;
#371 = CARTESIAN_POINT ( 'NONE',  ( 0.000000000000000000, 0.000000000000000000, 0.000000000000000000 ) ) ;
#372 = DIRECTION ( 'NONE',  ( 1.000000000000000000, -0.000000000000000000, -3.491481338843133750E-15 ) ) ;
#373 = CARTESIAN_POINT ( 'NONE',  ( 0.4669604844241950770, 22.02603478127597469, 22.49532519603051739 ) ) ;
#374 = ORIENTED_EDGE ( 'NONE', *, *, #453, .F. ) ;
#375 = CARTESIAN_POINT ( 'NONE',  ( -1.091850805417459824, 21.60880711528351128, 24.97623564966127674 ) ) ;
#376 = CARTESIAN_POINT ( 'NONE',  ( 1.449999999999999956, 20.64999999999999858, 22.45322916642504296 ) ) ;
#377 = CARTESIAN_POINT ( 'NONE',  ( -22.45792473298419623, 21.11753352981167353, -1.375843935434782894 ) ) ;
#378 = ORIENTED_EDGE ( 'NONE', *, *, #386, .T. ) ;
#379 = VERTEX_POINT ( 'NONE', #700 ) ;
#380 = DIRECTION ( 'NONE',  ( 0.000000000000000000, 0.000000000000000000, 1.000000000000000000 ) ) ;
#381 = APPLICATION_PROTOCOL_DEFINITION ( 'draft international standard', 'automotive_design', 1998, #535 ) ;
#382 = CARTESIAN_POINT ( 'NONE',  ( 1.440519783763729134, 20.84072567426824563, 24.95847044991874597 ) ) ;
#383 = ORIENTED_EDGE ( 'NONE', *, *, #798, .T. ) ;
#384 = CARTESIAN_POINT ( 'NONE',  ( 24.95791457634230781, 20.64999999999999858, -1.450000000000086775 ) ) ;
#385 = CARTESIAN_POINT ( 'NONE',  ( 2.755455298081545172E-15, 30.00000000000000000, 22.50000000000000355 ) ) ;
#386 = EDGE_CURVE ( 'NONE', #40, #840, #403, .T. ) ;
#387 = ORIENTED_EDGE ( 'NONE', *, *, #636, .F. ) ;
#388 = CARTESIAN_POINT ( 'NONE',  ( 0.3802088489197986698, 19.23803495153598675, -22.49746512545700483 ) ) ;
#389 = B_SPLINE_CURVE_WITH_KNOTS ( 'NONE', 3,
 ( #354, #774, #126, #763, #328, #196, #642, #274, #858, #617, #554, #623, #916, #477, #482, #133 ),
 .UNSPECIFIED., .F., .F.,
 ( 4, 2, 2, 2, 2, 2, 2, 4 ),
 ( 0.002267673563688146071, 0.002551003454137740906, 0.002834333344587335740, 0.003117663235036930575, 0.003400993125486525409, 0.003967652906385707272, 0.004250982796835297770, 0.004534312687284889135 ),
 .UNSPECIFIED. ) ;
#390 = CARTESIAN_POINT ( 'NONE',  ( 1.449999999999999956, 20.64999999999999858, 24.95791457634231492 ) ) ;
#391 = ORIENTED_EDGE ( 'NONE', *, *, #93, .T. ) ;
#392 = VECTOR ( 'NONE', #13, 1000.000000000000000 ) ;
#393 = FACE_BOUND ( 'NONE', #406, .T. ) ;
#394 = CARTESIAN_POINT ( 'NONE',  ( -1.091845565962707099, 21.60881254567491894, 22.47359250183391310 ) ) ;
#395 = CARTESIAN_POINT ( 'NONE',  ( -24.96798707088168001, 21.38057332055230830, 1.266859672968819739 ) ) ;
#396 = ORIENTED_EDGE ( 'NONE', *, *, #386, .F. ) ;
#397 = CARTESIAN_POINT ( 'NONE',  ( 24.97622873202896088, 19.69137328244449492, -1.092007409445268751 ) ) ;
#398 = VERTEX_POINT ( 'NONE', #845 ) ;
#399 = CARTESIAN_POINT ( 'NONE',  ( 0.4676395737979638367, 19.27419548638764368, 22.49531103815082389 ) ) ;
#400 = CARTESIAN_POINT ( 'NONE',  ( -22.49745800603515633, 22.06185219708664391, -0.3805919186858740533 ) ) ;
#401 = EDGE_LOOP ( 'NONE', ( #383, #709, #784, #235, #246, #190, #901, #847, #456, #52 ) ) ;
#402 = CARTESIAN_POINT ( 'NONE',  ( -2.304813613580882436E-16, 22.09999999999999787, -25.00000000000000000 ) ) ;
#403 = CIRCLE ( 'NONE', #650, 25.00000000000000000 ) ;
#404 = CARTESIAN_POINT ( 'NONE',  ( 22.45580141718206235, 21.03198373710505464, -1.411471652449561187 ) ) ;
#405 = CARTESIAN_POINT ( 'NONE',  ( -24.96213863105175079, 21.11751517043449411, -1.375850229300263683 ) ) ;
#406 = EDGE_LOOP ( 'NONE', ( #305, #415 ) ) ;
#407 = CARTESIAN_POINT ( 'NONE',  ( 24.99580037969377244, 19.27382698260028349, 0.4665560388043816786 ) ) ;
#408 = CARTESIAN_POINT ( 'NONE',  ( -1.158761373138378348, 19.75807136543955878, 24.97348984962764717 ) ) ;
#409 = ADVANCED_FACE ( 'NONE', ( #262 ), #6, .F. ) ;
#410 = DIRECTION ( 'NONE',  ( 0.000000000000000000, -0.000000000000000000, 1.000000000000000000 ) ) ;
#411 = PRODUCT ( 'Cylinder', 'Cylinder', '', ( #95 ) ) ;
#412 = CARTESIAN_POINT ( 'NONE',  ( 1.449999999999999734, 20.46065277306402663, 22.45322916642504651 ) ) ;
#413 = VECTOR ( 'NONE', #94, 1000.000000000000000 ) ;
#414 = CARTESIAN_POINT ( 'NONE',  ( -24.97341858125992431, 21.54018129493336531, 1.160486526674178620 ) ) ;
#415 = ORIENTED_EDGE ( 'NONE', *, *, #295, .F. ) ;
#416 = CARTESIAN_POINT ( 'NONE',  ( -0.1907317350957420943, 19.20948064901800834, -22.49938341313966106 ) ) ;
#417 = CARTESIAN_POINT ( 'NONE',  ( -24.95791457634231136, 20.46075416354774745, 1.450000000000087441 ) ) ;
#418 = CARTESIAN_POINT ( 'NONE',  ( 22.47049647028405772, 21.54082393880928947, 1.159598406614796406 ) ) ;
#419 = CARTESIAN_POINT ( 'NONE',  ( -24.95791457634231847, 20.64999999999999858, -1.449999999999912692 ) ) ;
#420 = EDGE_LOOP ( 'NONE', ( #765, #625, #123, #528, #674, #256 ) ) ;
#421 = CARTESIAN_POINT ( 'NONE',  ( -0.7304197101553896454, 19.38306003208612438, -22.48882754268172235 ) ) ;
#422 = CARTESIAN_POINT ( 'NONE',  ( -24.99576334194227201, 19.27449740207909556, 0.4685145597307098231 ) ) ;
#423 = EDGE_CURVE ( 'NONE', #663, #825, #87, .T. ) ;
#424 = CARTESIAN_POINT ( 'NONE',  ( 22.46438376362425871, 21.37902021589870571, 1.267555538145397120 ) ) ;
#425 = CARTESIAN_POINT ( 'NONE',  ( -0.6432556255838604020, 21.95298136421552115, -24.99187744080473195 ) ) ;
#426 = DIRECTION ( 'NONE',  ( -0.000000000000000000, -0.000000000000000000, 1.000000000000000000 ) ) ;
#427 = CYLINDRICAL_SURFACE ( 'NONE', #736, 25.00000000000000000 ) ;
#428 = CARTESIAN_POINT ( 'NONE',  ( -0.1900997034334400426, 22.09058885601271172, -22.49938794182010682 ) ) ;
#429 = FILL_AREA_STYLE ('',( #242 ) ) ;
#430 = CARTESIAN_POINT ( 'NONE',  ( 24.98174180462080685, 21.74287930563622950, -0.9576354730428549011 ) ) ;
#431 = DIRECTION ( 'NONE',  ( -0.000000000000000000, -1.000000000000000000, -0.000000000000000000 ) ) ;
#432 = CARTESIAN_POINT ( 'NONE',  ( -24.97350390260790931, 19.75767522203642557, -1.158473130591769928 ) ) ;
#433 = CARTESIAN_POINT ( 'NONE',  ( 22.45617634195697221, 20.27457353012984598, -1.403739650135988448 ) ) ;
#434 = CARTESIAN_POINT ( 'NONE',  ( -22.49095607273357800, 19.34733859074380291, 0.6438848239857387634 ) ) ;
#435 = CARTESIAN_POINT ( 'NONE',  ( 22.45791393354137711, 20.18297618199953192, 1.376019811150067218 ) ) ;
#436 = CARTESIAN_POINT ( 'NONE',  ( 22.45322916642503230, 20.64999999999999858, -1.450000000000078115 ) ) ;
#437 = B_SPLINE_CURVE_WITH_KNOTS ( 'NONE', 3,
 ( #773, #417, #486, #125, #9, #200, #704, #357, #778, #422, #63, #289, #634, #146, #279, #205, #58, #70, #337, #432, #640, #218, #351, #628 ),
 .UNSPECIFIED., .F., .F.,
 ( 4, 2, 2, 2, 2, 2, 2, 2, 2, 2, 2, 4 ),
 ( 0.004534312584917974710, 0.005100972053355634639, 0.005667631521793294568, 0.005950961256012120629, 0.006234290990230945823, 0.006517620724449771884, 0.006800950458668597945, 0.007367609927106250067, 0.007650939661325076996, 0.007934269395543903924, 0.008500928863981559516, 0.009067588332419215108 ),
 .UNSPECIFIED. ) ;
#438 = CARTESIAN_POINT ( 'NONE',  ( 22.45619540389768432, 20.27337610836530146, 1.403436165165762528 ) ) ;
#439 = CARTESIAN_POINT ( 'NONE',  ( -0.8835171850882148625, 19.49637396986771165, 22.48278457107038264 ) ) ;
#440 = CIRCLE ( 'NONE', #864, 22.50000000000000355 ) ;
#441 = EDGE_LOOP ( 'NONE', ( #756, #831 ) ) ;
#442 = AXIS2_PLACEMENT_3D ( 'NONE', #766, #119, #772 ) ;
#443 = CARTESIAN_POINT ( 'NONE',  ( 0.9587558880270333761, 19.55810673542083578, 24.98169857939978655 ) ) ;
#444 = CARTESIAN_POINT ( 'NONE',  ( 0.6424949144400513568, 21.95335110320034389, 22.49099615521949502 ) ) ;
#445 = ORIENTED_EDGE ( 'NONE', *, *, #295, .T. ) ;
#446 = ORIENTED_EDGE ( 'NONE', *, *, #876, .F. ) ;
#447 = CARTESIAN_POINT ( 'NONE',  ( 0.000000000000000000, 0.000000000000000000, 0.000000000000000000 ) ) ;
#448 = CARTESIAN_POINT ( 'NONE',  ( 1.160620560827221981, 21.53999837660909478, 24.97341207426329390 ) ) ;
#449 = ORIENTED_EDGE ( 'NONE', *, *, #370, .T. ) ;
#450 = EDGE_CURVE ( 'NONE', #676, #886, #723, .T. ) ;
#451 = CARTESIAN_POINT ( 'NONE',  ( 0.7264248703262363716, 19.39150771015350472, 24.98956851464514628 ) ) ;
#452 = CARTESIAN_POINT ( 'NONE',  ( 0.6424724997907649282, 21.95336188657828558, 24.99189739629148121 ) ) ;
#453 = EDGE_CURVE ( 'NONE', #398, #897, #645, .T. ) ;
#454 = CARTESIAN_POINT ( 'NONE',  ( -1.159412832687866324, 21.54109985692484841, -24.97345946438547770 ) ) ;
#455 = EDGE_LOOP ( 'NONE', ( #491, #184, #32, #61, #459, #241 ) ) ;
#456 = ORIENTED_EDGE ( 'NONE', *, *, #531, .F. ) ;
#457 = B_SPLINE_CURVE_WITH_KNOTS ( 'NONE', 3,
 ( #73, #363, #212, #223, #797, #80, #217, #148, #434, #725, #82, #78, #652, #581, #879, #509, #369, #654, #297, #497, #881, #228, #4, #868 ),
 .UNSPECIFIED., .F., .F.,
 ( 4, 2, 2, 2, 2, 2, 2, 2, 2, 2, 2, 4 ),
 ( 0.004534535684257335816, 0.005101222633952429489, 0.005667909583647523161, 0.005951253058495073467, 0.006234596533342623773, 0.006517940008190174078, 0.006801283483037723517, 0.007367970432732823260, 0.007651313907580371831, 0.007934657382427920402, 0.008501344332123015810, 0.009068031281818111217 ),
 .UNSPECIFIED. ) ;
#458 = DIRECTION ( 'NONE',  ( 0.000000000000000000, 1.000000000000000000, 0.000000000000000000 ) ) ;
#459 = ORIENTED_EDGE ( 'NONE', *, *, #524, .F. ) ;
#460 = B_SPLINE_CURVE_WITH_KNOTS ( 'NONE', 3,
 ( #349, #3, #283, #574, #871, #443, #514, #451, #229, #592, #737, #747, #521, #525 ),
 .UNSPECIFIED., .F., .F.,
 ( 4, 2, 2, 2, 2, 2, 4 ),
 ( 0.004534312584917975578, 0.005101264893430342180, 0.005668217201942708783, 0.005951693356198892518, 0.006235169510455075385, 0.006518645664711259120, 0.006802121818967442855 ),
 .UNSPECIFIED. ) ;
#461 = ORIENTED_EDGE ( 'NONE', *, *, #450, .T. ) ;
#462 = CARTESIAN_POINT ( 'NONE',  ( -25.00000000000008882, 20.64999999999999858, 1.450000000000087219 ) ) ;
#463 = CARTESIAN_POINT ( 'NONE',  ( -24.98446411297643266, 21.80922433054843168, -0.8913363086075262176 ) ) ;
#464 = EDGE_CURVE ( 'NONE', #468, #465, #894, .T. ) ;
#465 = VERTEX_POINT ( 'NONE', #51 ) ;
#466 = CARTESIAN_POINT ( 'NONE',  ( -1.257929628089267116, 19.92265217856435555, -22.46486983687914929 ) ) ;
#467 = B_SPLINE_CURVE_WITH_KNOTS ( 'NONE', 3,
 ( #376, #412, #787, #921, #561, #286, #489, #333, #201, #399, #280, #852, #268, #865 ),
 .UNSPECIFIED., .F., .F.,
 ( 4, 2, 2, 2, 2, 2, 4 ),
 ( 0.004534535684257335816, 0.005101513333508523110, 0.005668490982759710403, 0.005951979807385307519, 0.006235468632010905503, 0.006518957456636503486, 0.006802446281262100602 ),
 .UNSPECIFIED. ) ;
#468 = VERTEX_POINT ( 'NONE', #45 ) ;
#469 = DIRECTION ( 'NONE',  ( -0.000000000000000000, -1.000000000000000000, -0.000000000000000000 ) ) ;
#470 = CARTESIAN_POINT ( 'NONE',  ( 22.49938016869686308, 22.09046811283650058, 0.1910010189649879453 ) ) ;
#471 = CARTESIAN_POINT ( 'NONE',  ( -24.99999607526474321, 22.09993233214628461, -0.1897104439198127046 ) ) ;
#472 = ORIENTED_EDGE ( 'NONE', *, *, #301, .F. ) ;
#473 = PLANE ( 'NONE',  #442 ) ;
#474 = CIRCLE ( 'NONE', #43, 22.50000000000000355 ) ;
#475 = VERTEX_POINT ( 'NONE', #490 ) ;
#476 = CARTESIAN_POINT ( 'NONE',  ( -1.302981440997582618, 21.29325546252900736, 24.96604833384954247 ) ) ;
#477 = CARTESIAN_POINT ( 'NONE',  ( -0.1907256600624245568, 19.20948021239863124, -24.99944509457456832 ) ) ;
#478 = CARTESIAN_POINT ( 'NONE',  ( -22.49704751514392242, 22.05356277026863410, 0.3761689302098871757 ) ) ;
#479 = ORIENTED_EDGE ( 'NONE', *, *, #208, .T. ) ;
#480 = CARTESIAN_POINT ( 'NONE',  ( -1.403449409075905541, 20.27341446724266660, -22.45619457882200720 ) ) ;
#481 = CARTESIAN_POINT ( 'NONE',  ( 1.449999999999999956, 20.64999999999999858, -22.45322916642504296 ) ) ;
#482 = CARTESIAN_POINT ( 'NONE',  ( -0.09462296690491311946, 19.19999999999999929, -25.00000000000000000 ) ) ;
#483 = CARTESIAN_POINT ( 'NONE',  ( -24.99190605620334438, 21.95352747359353174, 0.6421392658535632902 ) ) ;
#484 = CARTESIAN_POINT ( 'NONE',  ( 1.450000000000000178, 20.55426129654261302, -22.45322916642504651 ) ) ;
#485 = CARTESIAN_POINT ( 'NONE',  ( 22.45322916642504651, 20.64999999999999858, 1.449999999999921574 ) ) ;
#486 = CARTESIAN_POINT ( 'NONE',  ( -24.96019758259796006, 20.27000066408747969, 1.412008383821836910 ) ) ;
#487 = DIRECTION ( 'NONE',  ( -0.000000000000000000, -1.000000000000000000, -0.000000000000000000 ) ) ;
#488 = EDGE_CURVE ( 'NONE', #815, #676, #767, .T. ) ;
#489 = CARTESIAN_POINT ( 'NONE',  ( 0.8841765152808098716, 19.49686254335894020, 22.48275916568001165 ) ) ;
#490 = CARTESIAN_POINT ( 'NONE',  ( 3.061616997402319681E-15, 19.19999999999999929, 25.00000000000000000 ) ) ;
#491 = ORIENTED_EDGE ( 'NONE', *, *, #96, .F. ) ;
#492 = CARTESIAN_POINT ( 'NONE',  ( 25.00000195432077987, 19.19996630481195155, 0.09407836044031545053 ) ) ;
#493 = CARTESIAN_POINT ( 'NONE',  ( -1.159406567914881059, 21.54110570352599296, -22.47050727335119902 ) ) ;
#494 = DIRECTION ( 'NONE',  ( 1.000000000000000000, 0.000000000000000000, 0.000000000000000000 ) ) ;
#495 = CARTESIAN_POINT ( 'NONE',  ( -0.09584836467858486031, 22.09999999999999787, -25.00000000000000000 ) ) ;
#496 = CARTESIAN_POINT ( 'NONE',  ( 22.45792473298419267, 20.18246647018832007, -1.375843935434940324 ) ) ;
#497 = CARTESIAN_POINT ( 'NONE',  ( -22.47055696795204938, 19.75766262175231702, -1.158460182011916029 ) ) ;
#498 = CYLINDRICAL_SURFACE ( 'NONE', #566, 1.449999999999999956 ) ;
#499 = VECTOR ( 'NONE', #84, 1000.000000000000000 ) ;
#500 =( GEOMETRIC_REPRESENTATION_CONTEXT ( 3 ) GLOBAL_UNCERTAINTY_ASSIGNED_CONTEXT ( ( #850 ) ) GLOBAL_UNIT_ASSIGNED_CONTEXT ( ( #915, #844, #323 ) ) REPRESENTATION_CONTEXT ( 'NONE', 'WORKASPACE' ) );
#501 = SURFACE_SIDE_STYLE ('',( #215 ) ) ;
#502 = CARTESIAN_POINT ( 'NONE',  ( 22.46483872010699301, 19.92358336982837841, -1.258490537460851488 ) ) ;
#503 = CARTESIAN_POINT ( 'NONE',  ( 1.449999999999999956, 20.64999999999999858, -24.95791457634231136 ) ) ;
#504 = DIRECTION ( 'NONE',  ( -2.392722035830078873E-15, 0.000000000000000000, -1.000000000000000000 ) ) ;
#505 = CARTESIAN_POINT ( 'NONE',  ( 22.49938852668176281, 19.20940094890374183, 0.1901733107454716687 ) ) ;
#506 = CARTESIAN_POINT ( 'NONE',  ( 1.258492412709380170, 19.92357534660911966, -24.96835953904978567 ) ) ;
#507 = B_SPLINE_CURVE_WITH_KNOTS ( 'NONE', 3,
 ( #192, #786, #428, #137, #576, #717, #273, #646, #74, #493, #346, #130, #697, #143 ),
 .UNSPECIFIED., .F., .F.,
 ( 4, 2, 2, 2, 2, 2, 4 ),
 ( 1.807620233480100746E-19, 0.0002834732644541121068, 0.0005669465289082241052, 0.0008504197933623363747, 0.001133893057816448644, 0.001700839586724673183, 0.002267786115632897722 ),
 .UNSPECIFIED. ) ;
#508 = DIRECTION ( 'NONE',  ( -0.000000000000000000, -1.000000000000000000, -0.000000000000000000 ) ) ;
#509 = CARTESIAN_POINT ( 'NONE',  ( -22.49100787612161767, 19.34644628598099914, -0.6421021013857851623 ) ) ;
#510 = CARTESIAN_POINT ( 'NONE',  ( 24.98452710240404429, 21.80405596669505996, -0.8829599924622562046 ) ) ;
#511 = FACE_OUTER_BOUND ( 'NONE', #420, .T. ) ;
#512 = DIRECTION ( 'NONE',  ( 0.000000000000000000, 0.000000000000000000, 1.000000000000000000 ) ) ;
#513 = ORIENTED_EDGE ( 'NONE', *, *, #877, .F. ) ;
#514 = CARTESIAN_POINT ( 'NONE',  ( 0.8841737657653786497, 19.49685964090929957, 24.98448447321466404 ) ) ;
#515 = CARTESIAN_POINT ( 'NONE',  ( 0.000000000000000000, 0.000000000000000000, -22.50000000000000355 ) ) ;
#516 = CARTESIAN_POINT ( 'NONE',  ( -1.449999999999999734, 20.45848982649292935, 24.95791457634231492 ) ) ;
#517 = ORIENTED_EDGE ( 'NONE', *, *, #705, .T. ) ;
#518 = ORIENTED_EDGE ( 'NONE', *, *, #626, .F. ) ;
#519 = PRODUCT_DEFINITION_SHAPE ( 'NONE', 'NONE',  #255 ) ;
#520 = AXIS2_PLACEMENT_3D ( 'NONE', #248, #835, #31 ) ;
#521 = CARTESIAN_POINT ( 'NONE',  ( 0.09572445551259398111, 19.19999999999999574, 24.99999999999999645 ) ) ;
#522 = EDGE_LOOP ( 'NONE', ( #540, #264, #252, #176 ) ) ;
#523 = EDGE_CURVE ( 'NONE', #811, #97, #590, .T. ) ;
#524 = EDGE_CURVE ( 'NONE', #56, #277, #930, .T. ) ;
#525 = CARTESIAN_POINT ( 'NONE',  ( 3.061616997402319681E-15, 19.19999999999999929, 25.00000000000000000 ) ) ;
#526 = CARTESIAN_POINT ( 'NONE',  ( 0.000000000000000000, 30.00000000000000000, -25.00000000000000000 ) ) ;
#527 = ORIENTED_EDGE ( 'NONE', *, *, #30, .T. ) ;
#528 = ORIENTED_EDGE ( 'NONE', *, *, #626, .T. ) ;
#529 = AXIS2_PLACEMENT_3D ( 'NONE', #884, #306, #300 ) ;
#530 = CARTESIAN_POINT ( 'NONE',  ( 0.8843878873671959795, 21.80294430311983334, 24.98447580071830032 ) ) ;
#531 = EDGE_CURVE ( 'NONE', #771, #379, #507, .T. ) ;
#532 = ORIENTED_EDGE ( 'NONE', *, *, #453, .T. ) ;
#533 = CARTESIAN_POINT ( 'NONE',  ( 0.7293638243119405784, 19.38262772688291946, -22.48885333341244674 ) ) ;
#534 = ADVANCED_FACE ( 'NONE', ( #862 ), #498, .F. ) ;
#535 = APPLICATION_CONTEXT ( 'automotive_design' ) ;
#536 = CIRCLE ( 'NONE', #138, 25.00000000000000000 ) ;
#537 = CARTESIAN_POINT ( 'NONE',  ( 2.755455271706670665E-15, 22.09999999999999787, 22.50000000000000355 ) ) ;
#538 = VERTEX_POINT ( 'NONE', #481 ) ;
#539 = CARTESIAN_POINT ( 'NONE',  ( 24.99734299331396059, 19.24643365160557806, 0.3761551069319301055 ) ) ;
#540 = ORIENTED_EDGE ( 'NONE', *, *, #338, .F. ) ;
#541 = CARTESIAN_POINT ( 'NONE',  ( 0.000000000000000000, 30.00000000000000000, -25.00000000000000000 ) ) ;
#542 = CARTESIAN_POINT ( 'NONE',  ( -1.440588855101801347, 20.84009969470261936, 22.45384254347001729 ) ) ;
#543 = CARTESIAN_POINT ( 'NONE',  ( -22.48275884454713847, 21.80312298059470777, 0.8841568928654428561 ) ) ;
#544 = ORIENTED_EDGE ( 'NONE', *, *, #370, .F. ) ;
#545 = CARTESIAN_POINT ( 'NONE',  ( 6.147987464839955505E-24, 19.19999999999999929, -22.50000000000000355 ) ) ;
#546 = ORIENTED_EDGE ( 'NONE', *, *, #698, .T. ) ;
#547 = DIRECTION ( 'NONE',  ( 0.000000000000000000, 0.000000000000000000, -1.000000000000000000 ) ) ;
#548 = CARTESIAN_POINT ( 'NONE',  ( 0.000000000000000000, 20.64999999999999858, -25.00000000000000000 ) ) ;
#549 = CARTESIAN_POINT ( 'NONE',  ( 1.092455588847746961, 21.60811373844649452, -24.97620900381769715 ) ) ;
#550 = ORIENTED_EDGE ( 'NONE', *, *, #641, .T. ) ;
#551 = CARTESIAN_POINT ( 'NONE',  ( 24.95846608363432750, 20.45995251424243833, -1.440594094264139757 ) ) ;
#552 = CYLINDRICAL_SURFACE ( 'NONE', #155, 1.449999999999999956 ) ;
#553 = CARTESIAN_POINT ( 'NONE',  ( 0.000000000000000000, 110.0000000000000000, 0.000000000000000000 ) ) ;
#554 = CARTESIAN_POINT ( 'NONE',  ( -0.7304178689849317729, 19.38305749195972894, -24.98994531378851036 ) ) ;
#555 = CARTESIAN_POINT ( 'NONE',  ( -24.96604488489236218, 21.29311942374651423, -1.303047080827066662 ) ) ;
#556 = CARTESIAN_POINT ( 'NONE',  ( 0.000000000000000000, 0.000000000000000000, 0.000000000000000000 ) ) ;
#557 = CARTESIAN_POINT ( 'NONE',  ( -0.4669212075645619575, 19.27394693243802593, -22.49532626758928444 ) ) ;
#558 = CARTESIAN_POINT ( 'NONE',  ( 1.449999999999999956, 20.64999999999999858, -25.00000000000000000 ) ) ;
#559 = EDGE_CURVE ( 'NONE', #97, #811, #437, .T. ) ;
#560 = CYLINDRICAL_SURFACE ( 'NONE', #768, 22.50000000000000355 ) ;
#561 = CARTESIAN_POINT ( 'NONE',  ( 1.159312086190025237, 19.75878209623921933, 22.47051198784502901 ) ) ;
#562 = CARTESIAN_POINT ( 'NONE',  ( -22.47048740073527995, 21.53402852147073432, -1.153244608352573364 ) ) ;
#563 = ORIENTED_EDGE ( 'NONE', *, *, #30, .F. ) ;
#564 = CARTESIAN_POINT ( 'NONE',  ( 24.96798707088168712, 19.91942667944768530, 1.266859672968645656 ) ) ;
#565 = DIRECTION ( 'NONE',  ( 1.000000000000000000, -0.000000000000000000, -3.491481338843133750E-15 ) ) ;
#566 = AXIS2_PLACEMENT_3D ( 'NONE', #795, #565, #504 ) ;
#567 = CARTESIAN_POINT ( 'NONE',  ( 22.49100787612161767, 21.95355371401899447, -0.6421021013859421478 ) ) ;
#568 = CARTESIAN_POINT ( 'NONE',  ( -22.46442494925117117, 21.38057532223046309, 1.266857043070644062 ) ) ;
#569 = CARTESIAN_POINT ( 'NONE',  ( 24.95791457634231847, 20.84160919391312561, -1.450000000000086997 ) ) ;
#570 = CARTESIAN_POINT ( 'NONE',  ( 5.659485349281843945E-24, 19.19999999999999929, -25.00000000000000000 ) ) ;
#571 = CARTESIAN_POINT ( 'NONE',  ( -25.00000000000009237, 20.64999999999999858, 8.728703347107864943E-14 ) ) ;
#572 = PRODUCT_DEFINITION_FORMATION_WITH_SPECIFIED_SOURCE ( 'ANY', '', #411, .NOT_KNOWN. ) ;
#573 = DIRECTION ( 'NONE',  ( 0.000000000000000000, 1.000000000000000000, 0.000000000000000000 ) ) ;
#574 = CARTESIAN_POINT ( 'NONE',  ( 1.267379948599384187, 19.92064959569658100, 24.96795925993786369 ) ) ;
#575 = CARTESIAN_POINT ( 'NONE',  ( 1.303040581704103529, 20.00687559013617545, -24.96604519861904947 ) ) ;
#576 = CARTESIAN_POINT ( 'NONE',  ( -0.4676381402573421275, 22.02580982159877721, -22.49531131318941846 ) ) ;
#577 = CIRCLE ( 'NONE', #48, 22.50000000000000355 ) ;
#578 = CARTESIAN_POINT ( 'NONE',  ( 22.49999563084826093, 19.20006779718652723, -0.1897217581097958850 ) ) ;
#579 = CARTESIAN_POINT ( 'NONE',  ( -0.9581187318452152324, 19.55754961233982669, 22.47969061570508487 ) ) ;
#580 = CARTESIAN_POINT ( 'NONE',  ( 22.48838764737244134, 19.39189574167869878, 0.7270486192619122212 ) ) ;
#581 = CARTESIAN_POINT ( 'NONE',  ( -22.50000998767489335, 19.19984501878679239, -0.1901758767496601055 ) ) ;
#582 = CARTESIAN_POINT ( 'NONE',  ( 22.49704751514393664, 19.24643722973136661, 0.3761689302097290244 ) ) ;
#583 = DIRECTION ( 'NONE',  ( 1.000000000000000000, 0.000000000000000000, 0.000000000000000000 ) ) ;
#584 = LINE ( 'NONE', #187, #413 ) ;
#585 = CARTESIAN_POINT ( 'NONE',  ( 1.375804563886785514, 20.18236058834947855, -22.45792712071477126 ) ) ;
#586 = CARTESIAN_POINT ( 'NONE',  ( 0.000000000000000000, 30.00000000000000000, 0.000000000000000000 ) ) ;
#587 = CARTESIAN_POINT ( 'NONE',  ( 0.1915209053475345202, 22.09999999999999432, -22.50000000000000355 ) ) ;
#588 = CARTESIAN_POINT ( 'NONE',  ( -22.46226655573563136, 21.29313537457844063, -1.303039149886408010 ) ) ;
#589 = EDGE_LOOP ( 'NONE', ( #702, #472, #608, #819, #776, #532 ) ) ;
#590 = B_SPLINE_CURVE_WITH_KNOTS ( 'NONE', 3,
 ( #419, #846, #189, #348, #405, #555, #694, #637, #55, #463, #334, #854, #471, #197, #764, #758, #775, #483, #112, #127, #117, #414, #395, #682, #701, #343, #631, #257 ),
 .UNSPECIFIED., .F., .F.,
 ( 4, 2, 2, 2, 2, 2, 2, 2, 2, 2, 2, 2, 2, 4 ),
 ( 0.000000000000000000, 0.0002833945365573758588, 0.0005667890731147517177, 0.0008501836096721275765, 0.001133578146229503435, 0.001700367219344247997, 0.002267156292458992993, 0.002550550829016365491, 0.002833945365573737121, 0.003117339902131109619, 0.003400734438688481683, 0.003967523511803233184, 0.004250918048360603947, 0.004534312584917974710 ),
 .UNSPECIFIED. ) ;
#591 = AXIS2_PLACEMENT_3D ( 'NONE', #743, #598, #247 ) ;
#592 = CARTESIAN_POINT ( 'NONE',  ( 0.4676257070780559522, 19.27419115756001489, 24.99578024316673108 ) ) ;
#593 = CYLINDRICAL_SURFACE ( 'NONE', #159, 1.449999999999999956 ) ;
#594 = CARTESIAN_POINT ( 'NONE',  ( 0.3765710062583183526, 22.05345318380756581, 24.99733662151037805 ) ) ;
#595 = ORIENTED_EDGE ( 'NONE', *, *, #656, .T. ) ;
#596 = ORIENTED_EDGE ( 'NONE', *, *, #877, .T. ) ;
#597 = CARTESIAN_POINT ( 'NONE',  ( -1.375816211826829782, 21.11761947877736390, 24.96214052910867309 ) ) ;
#598 = DIRECTION ( 'NONE',  ( 0.000000000000000000, 0.000000000000000000, 1.000000000000000000 ) ) ;
#599 = ORIENTED_EDGE ( 'NONE', *, *, #559, .F. ) ;
#600 = ADVANCED_FACE ( 'NONE', ( #5 ), #552, .F. ) ;
#601 = DIRECTION ( 'NONE',  ( -0.000000000000000000, -1.000000000000000000, -0.000000000000000000 ) ) ;
#602 = CARTESIAN_POINT ( 'NONE',  ( 0.3765855871622688089, 22.05344939514930047, 22.49704042204579579 ) ) ;
#603 = VERTEX_POINT ( 'NONE', #869 ) ;
#604 = EDGE_LOOP ( 'NONE', ( #330, #595, #619, #679, #180, #527, #513, #118, #173, #315 ) ) ;
#605 = CARTESIAN_POINT ( 'NONE',  ( -1.258405499818964435, 21.37656689739758420, 22.46484353829184144 ) ) ;
#606 = CARTESIAN_POINT ( 'NONE',  ( 0.1906492314902099583, 22.09053454652621795, 22.49938437660357948 ) ) ;
#607 = ORIENTED_EDGE ( 'NONE', *, *, #93, .F. ) ;
#608 = ORIENTED_EDGE ( 'NONE', *, *, #208, .F. ) ;
#609 = CARTESIAN_POINT ( 'NONE',  ( 2.755455298081545172E-15, 110.0000000000000000, 22.50000000000000355 ) ) ;
#610 = DIRECTION ( 'NONE',  ( 0.000000000000000000, 0.000000000000000000, 1.000000000000000000 ) ) ;
#611 = AXIS2_PLACEMENT_3D ( 'NONE', #145, #142, #583 ) ;
#612 = CARTESIAN_POINT ( 'NONE',  ( -22.45322916642502875, 20.74464678175478483, 1.450000000000078115 ) ) ;
#613 = CARTESIAN_POINT ( 'NONE',  ( 5.659485349281843945E-24, 19.19999999999999929, -25.00000000000000000 ) ) ;
#614 = CARTESIAN_POINT ( 'NONE',  ( 6.147987464839955505E-24, 19.19999999999999929, -22.50000000000000355 ) ) ;
#615 = EDGE_LOOP ( 'NONE', ( #607, #335 ) ) ;
#616 = CARTESIAN_POINT ( 'NONE',  ( 1.449999999999999956, 20.64999999999999858, 25.00000000000000000 ) ) ;
#617 = CARTESIAN_POINT ( 'NONE',  ( -0.8899985896058429935, 19.48937959694475452, -24.98452022185906074 ) ) ;
#618 = CARTESIAN_POINT ( 'NONE',  ( 0.8919288966758718296, 21.80876116645878326, -24.98444244939697967 ) ) ;
#619 = ORIENTED_EDGE ( 'NONE', *, *, #301, .T. ) ;
#620 = CARTESIAN_POINT ( 'NONE',  ( -1.449999999999999956, 20.64999999999999858, -22.45322916642504296 ) ) ;
#621 = CARTESIAN_POINT ( 'NONE',  ( -0.7260728619881516854, 19.39132087773833746, 24.98957824666174332 ) ) ;
#622 = FACE_OUTER_BOUND ( 'NONE', #308, .T. ) ;
#623 = CARTESIAN_POINT ( 'NONE',  ( -0.4669047690645327098, 19.27394101429924689, -24.99579403017621715 ) ) ;
#624 = CARTESIAN_POINT ( 'NONE',  ( -22.49938852668176281, 22.09059905109625888, 0.1901733107456297645 ) ) ;
#625 = ORIENTED_EDGE ( 'NONE', *, *, #450, .F. ) ;
#626 = EDGE_CURVE ( 'NONE', #815, #538, #213, .T. ) ;
#627 = CARTESIAN_POINT ( 'NONE',  ( 24.96058292667292733, 20.27339298351205699, 1.403440314667215860 ) ) ;
#628 = CARTESIAN_POINT ( 'NONE',  ( -24.95791457634231847, 20.64999999999999858, -1.449999999999912692 ) ) ;
#629 = EDGE_CURVE ( 'NONE', #475, #56, #781, .T. ) ;
#630 = CARTESIAN_POINT ( 'NONE',  ( 22.45322916642504651, 20.64999999999999858, 1.449999999999921574 ) ) ;
#631 = CARTESIAN_POINT ( 'NONE',  ( -24.95791457634230781, 20.74464456010002777, 1.450000000000086997 ) ) ;
#632 = CYLINDRICAL_SURFACE ( 'NONE', #207, 1.449999999999999956 ) ;
#633 = CARTESIAN_POINT ( 'NONE',  ( 24.99771244955709548, 19.23814274419038384, -0.3805738709575879897 ) ) ;
#634 = CARTESIAN_POINT ( 'NONE',  ( -24.99999543148434356, 19.20007876753756904, 0.09684885010581313625 ) ) ;
#635 = CARTESIAN_POINT ( 'NONE',  ( 22.48280609891321902, 21.80404484114765751, -0.8829748912305488417 ) ) ;
#636 = EDGE_CURVE ( 'NONE', #97, #465, #163, .T. ) ;
#637 = CARTESIAN_POINT ( 'NONE',  ( -24.97344156828076933, 21.53401808170109533, -1.153252736946881241 ) ) ;
#638 = CARTESIAN_POINT ( 'NONE',  ( 22.45322916642504651, 20.64999999999999858, 1.449999999999921574 ) ) ;
#639 = CARTESIAN_POINT ( 'NONE',  ( -1.093005291240753740, 19.69239928800674022, -22.47353840766322719 ) ) ;
#640 = CARTESIAN_POINT ( 'NONE',  ( -24.96800161662045525, 19.91924424913933933, -1.266554802787584588 ) ) ;
#641 = EDGE_CURVE ( 'NONE', #741, #538, #732, .T. ) ;
#642 = CARTESIAN_POINT ( 'NONE',  ( -1.257938570510828580, 19.92266716928679671, -24.96838707075099251 ) ) ;
#643 = CARTESIAN_POINT ( 'NONE',  ( 3.061616997868383043E-15, 30.00000000000000000, 25.00000000000000000 ) ) ;
#644 = CARTESIAN_POINT ( 'NONE',  ( 1.153140547130624194, 19.76582648283019594, -24.97344686066921682 ) ) ;
#645 = B_SPLINE_CURVE_WITH_KNOTS ( 'NONE', 3,
 ( #537, #321, #606, #602, #373, #444, #26, #108, #39, #251, #671, #739, #836, #814, #179, #892 ),
 .UNSPECIFIED., .F., .F.,
 ( 4, 2, 2, 2, 2, 2, 2, 4 ),
 ( 0.002267785981290948698, 0.002551129694161745950, 0.002834473407032542767, 0.003117817119903340019, 0.003401160832774137270, 0.003967848258515731773, 0.004251191971386533361, 0.004534535684257335816 ),
 .UNSPECIFIED. ) ;
#646 = CARTESIAN_POINT ( 'NONE',  ( -0.8842027652714656849, 21.80311288998286656, -22.48275796432600515 ) ) ;
#647 = CARTESIAN_POINT ( 'NONE',  ( 3.061616997868383043E-15, 30.00000000000000000, 25.00000000000000000 ) ) ;
#648 = CARTESIAN_POINT ( 'NONE',  ( 22.46226655573561715, 20.00686462542155297, -1.303039149886564996 ) ) ;
#649 = CARTESIAN_POINT ( 'NONE',  ( 0.000000000000000000, 30.00000000000000000, 0.000000000000000000 ) ) ;
#650 = AXIS2_PLACEMENT_3D ( 'NONE', #209, #573, #59 ) ;
#651 = CARTESIAN_POINT ( 'NONE',  ( 24.96794968504276468, 21.37900453207886997, 1.267564421828374144 ) ) ;
#652 = CARTESIAN_POINT ( 'NONE',  ( -22.49999495990574516, 19.20007820838487334, 0.09685495138796355874 ) ) ;
#653 = CARTESIAN_POINT ( 'NONE',  ( 24.99186119594444477, 21.95266971556701918, 0.6438671460100724442 ) ) ;
#654 = CARTESIAN_POINT ( 'NONE',  ( -22.48280609891320836, 19.49595515885233254, -0.8829748912303921893 ) ) ;
#655 = AXIS2_PLACEMENT_3D ( 'NONE', #586, #733, #887 ) ;
#656 = EDGE_CURVE ( 'NONE', #840, #245, #353, .T. ) ;
#657 = CARTESIAN_POINT ( 'NONE',  ( -0.1892393185539990585, 22.09999999999999432, 24.99999999999999289 ) ) ;
#658 =( NAMED_UNIT ( * ) SI_UNIT ( $, .STERADIAN. ) SOLID_ANGLE_UNIT ( ) );
#659 = COLOUR_RGB ( '',0.7921568627450980005, 0.8196078431372548767, 0.9333333333333333481 ) ;
#660 = DIRECTION ( 'NONE',  ( 0.000000000000000000, 1.000000000000000000, 0.000000000000000000 ) ) ;
#661 = CARTESIAN_POINT ( 'NONE',  ( 1.412346745034059436, 21.02937282053257917, -22.45574740549572113 ) ) ;
#662 = CARTESIAN_POINT ( 'NONE',  ( -22.45322916642504651, 20.64999999999999858, -1.449999999999921352 ) ) ;
#663 = VERTEX_POINT ( 'NONE', #485 ) ;
#664 = CARTESIAN_POINT ( 'NONE',  ( -0.8911001458629745908, 21.80941260665872861, 24.98447282143145998 ) ) ;
#665 = CARTESIAN_POINT ( 'NONE',  ( 1.303186018548909475, 21.29283976802188505, -22.46225801022613311 ) ) ;
#666 = CARTESIAN_POINT ( 'NONE',  ( -0.3801737882390746059, 22.06197061594158626, 22.49746553481191214 ) ) ;
#667 = CARTESIAN_POINT ( 'NONE',  ( -1.267423140586344754, 21.37926825542894349, -24.96795701433698511 ) ) ;
#668 = EDGE_LOOP ( 'NONE', ( #318, #396, #322, #461, #449, #596, #312, #912, #68, #479 ) ) ;
#669 = CARTESIAN_POINT ( 'NONE',  ( -1.450000000000000178, 20.74584836902288032, 24.95791457634231492 ) ) ;
#670 = SHAPE_DEFINITION_REPRESENTATION ( #519, #271 ) ;
#671 = CARTESIAN_POINT ( 'NONE',  ( 1.266940118883182143, 21.38041941343156793, 22.46442015628612054 ) ) ;
#672 = ORIENTED_EDGE ( 'NONE', *, *, #807, .F. ) ;
#673 = CARTESIAN_POINT ( 'NONE',  ( 2.755455298081545172E-15, 0.000000000000000000, 22.50000000000000355 ) ) ;
#674 = ORIENTED_EDGE ( 'NONE', *, *, #882, .T. ) ;
#675 = CARTESIAN_POINT ( 'NONE',  ( 0.8912183263668623789, 19.49068823876377010, -22.48274148493140245 ) ) ;
#676 = VERTEX_POINT ( 'NONE', #402 ) ;
#677 = B_SPLINE_CURVE_WITH_KNOTS ( 'NONE', 3,
 ( #75, #802, #147, #433, #496, #648, #502, #141, #287, #793, #293, #10, #578, #724, #505, #582, #796, #153, #580, #878, #222, #800, #150, #435, #438, #79, #880, #638 ),
 .UNSPECIFIED., .F., .F.,
 ( 4, 2, 2, 2, 2, 2, 2, 2, 2, 2, 2, 2, 2, 4 ),
 ( 0.000000000000000000, 0.0002834084802660876085, 0.0005668169605321752170, 0.0008502254407982627171, 0.001133633921064350434, 0.001700450881596518278, 0.002267267842128686123, 0.002550676322394770153, 0.002834084802660854184, 0.003117493282926938215, 0.003400901763193022245, 0.003967718723725182500, 0.004251127203991259158, 0.004534535684257334949 ),
 .UNSPECIFIED. ) ;
#678 = CARTESIAN_POINT ( 'NONE',  ( -1.302973391076953646, 21.29327165553563361, 22.46227039607493481 ) ) ;
#679 = ORIENTED_EDGE ( 'NONE', *, *, #96, .T. ) ;
#680 = VECTOR ( 'NONE', #711, 1000.000000000000000 ) ;
#681 = VECTOR ( 'NONE', #808, 1000.000000000000000 ) ;
#682 = CARTESIAN_POINT ( 'NONE',  ( -24.96212893586396575, 21.11700723971260629, 1.376025777367768210 ) ) ;
#683 = CARTESIAN_POINT ( 'NONE',  ( 24.95791457634231847, 20.64999999999999858, 1.449999999999912914 ) ) ;
#684 = CARTESIAN_POINT ( 'NONE',  ( -1.303351195708115862, 20.00750528200370226, -22.46224835332647984 ) ) ;
#685 = PLANE ( 'NONE',  #834 ) ;
#686 = CIRCLE ( 'NONE', #520, 25.00000000000000000 ) ;
#687 = CARTESIAN_POINT ( 'NONE',  ( 22.49999495990573806, 22.09992179161512382, 0.09685495138780655933 ) ) ;
#688 = CARTESIAN_POINT ( 'NONE',  ( 1.449999999999999956, 20.64999999999999858, -24.95791457634231136 ) ) ;
#689 = ORIENTED_EDGE ( 'NONE', *, *, #882, .F. ) ;
#690 = CARTESIAN_POINT ( 'NONE',  ( 24.96212893586396930, 20.18299276028738376, 1.376025777367593461 ) ) ;
#691 = B_SPLINE_CURVE_WITH_KNOTS ( 'NONE', 3,
 ( #749, #178, #896, #594, #891, #452, #908, #530, #830, #448, #823, #244, #744, #382, #171, #390 ),
 .UNSPECIFIED., .F., .F.,
 ( 4, 2, 2, 2, 2, 2, 2, 4 ),
 ( 0.002267673475657686847, 0.002551003364315221691, 0.002834333252972756536, 0.003117663141630291380, 0.003400993030287826225, 0.003967652807602896348, 0.004250982696260435095, 0.004534312584917975578 ),
 .UNSPECIFIED. ) ;
#692 = EDGE_CURVE ( 'NONE', #888, #166, #726, .T. ) ;
#693 = CARTESIAN_POINT ( 'NONE',  ( 22.45322916642503230, 20.64999999999999858, -1.450000000000078115 ) ) ;
#694 = CARTESIAN_POINT ( 'NONE',  ( -24.96835910689542359, 21.37640257111855746, -1.258498767866815138 ) ) ;
#695 = DIRECTION ( 'NONE',  ( -1.000000000000000000, 0.000000000000000000, 0.000000000000000000 ) ) ;
#696 = CARTESIAN_POINT ( 'NONE',  ( 0.000000000000000000, 0.000000000000000000, 0.000000000000000000 ) ) ;
#697 = CARTESIAN_POINT ( 'NONE',  ( -1.449999999999999956, 20.83924973064680586, -22.45322916642504296 ) ) ;
#698 = EDGE_CURVE ( 'NONE', #102, #893, #440, .T. ) ;
#699 = CARTESIAN_POINT ( 'NONE',  ( 3.061616970775897547E-15, 22.09999999999999787, 25.00000000000000000 ) ) ;
#700 = CARTESIAN_POINT ( 'NONE',  ( -1.449999999999999956, 20.64999999999999858, -22.45322916642504296 ) ) ;
#701 = CARTESIAN_POINT ( 'NONE',  ( -24.96058292667292022, 21.02660701648794017, 1.403440314667390165 ) ) ;
#702 = ORIENTED_EDGE ( 'NONE', *, *, #193, .F. ) ;
#703 = CARTESIAN_POINT ( 'NONE',  ( 24.96604488489235152, 20.00688057625347582, -1.303047080827240745 ) ) ;
#704 = CARTESIAN_POINT ( 'NONE',  ( -24.98446490105517270, 19.49728308524756670, 0.8847209648863226805 ) ) ;
#705 = EDGE_CURVE ( 'NONE', #379, #741, #341, .T. ) ;
#706 = CARTESIAN_POINT ( 'NONE',  ( 3.061616997868383043E-15, 0.000000000000000000, 25.00000000000000000 ) ) ;
#707 = CARTESIAN_POINT ( 'NONE',  ( 22.48273757897857550, 21.80271719020998233, 0.8847196028504497045 ) ) ;
#708 = CARTESIAN_POINT ( 'NONE',  ( -22.48273650226528986, 21.80921761316484719, -0.8913427220464056333 ) ) ;
#709 = ORIENTED_EDGE ( 'NONE', *, *, #361, .T. ) ;
#710 = CARTESIAN_POINT ( 'NONE',  ( -1.440534550646454415, 20.45935080458746569, -22.45384611629251737 ) ) ;
#711 = DIRECTION ( 'NONE',  ( -0.000000000000000000, -0.000000000000000000, -1.000000000000000000 ) ) ;
#712 = EDGE_CURVE ( 'NONE', #904, #102, #919, .T. ) ;
#713 = CARTESIAN_POINT ( 'NONE',  ( 22.46444146615936077, 21.38076991864521048, -1.266546140922105712 ) ) ;
#714 = CARTESIAN_POINT ( 'NONE',  ( -0.4676195542574488329, 22.02581618969043475, -24.99578059930366436 ) ) ;
#715 = CARTESIAN_POINT ( 'NONE',  ( 24.99733914959259806, 22.05349748567170209, 0.3763302971390004581 ) ) ;
#716 = CARTESIAN_POINT ( 'NONE',  ( 1.403754256254658772, 20.27461692742750898, -24.96056519278785402 ) ) ;
#717 = CARTESIAN_POINT ( 'NONE',  ( -0.6432719042420532718, 21.95297327395606501, -22.49097413996876682 ) ) ;
#718 = PRESENTATION_STYLE_ASSIGNMENT (( #792 ) ) ;
#719 = CARTESIAN_POINT ( 'NONE',  ( -1.449999999999999956, 20.64999999999999858, 24.95791457634231136 ) ) ;
#720 = CARTESIAN_POINT ( 'NONE',  ( 1.091893493487483324, 19.69124437267539918, -24.97623371636965928 ) ) ;
#721 = DIRECTION ( 'NONE',  ( -0.000000000000000000, -0.000000000000000000, 1.000000000000000000 ) ) ;
#722 = UNCERTAINTY_MEASURE_WITH_UNIT (LENGTH_MEASURE( 1.000000000000000082E-05 ), #106, 'distance_accuracy_value', 'NONE');
#723 = B_SPLINE_CURVE_WITH_KNOTS ( 'NONE', 3,
 ( #54, #495, #788, #140, #714, #425, #210, #225, #160, #454, #667, #824, #745, #101 ),
 .UNSPECIFIED., .F., .F.,
 ( 4, 2, 2, 2, 2, 2, 4 ),
 ( 2.239778060411505137E-19, 0.0002834591954610163615, 0.0005669183909220326147, 0.0008503775863830488136, 0.001133836781844065229, 0.001700755172766105433, 0.002267673563688146071 ),
 .UNSPECIFIED. ) ;
#724 = CARTESIAN_POINT ( 'NONE',  ( 22.50000217560175741, 19.19996624066047275, 0.09408257723717627918 ) ) ;
#725 = CARTESIAN_POINT ( 'NONE',  ( -22.49529239376956014, 19.27449952282073298, 0.4685219856143977846 ) ) ;
#726 = B_SPLINE_CURVE_WITH_KNOTS ( 'NONE', 3,
 ( #924, #62, #551, #181, #129, #703, #53, #114, #397, #345, #204, #633, #350, #492, #929, #539, #407, #326, #278, #785, #336, #191, #564, #690, #627, #69, #272, #331 ),
 .UNSPECIFIED., .F., .F.,
 ( 4, 2, 2, 2, 2, 2, 2, 2, 2, 2, 2, 2, 2, 4 ),
 ( 0.000000000000000000, 0.0002833945365573760757, 0.0005667890731147521514, 0.0008501836096721281186, 0.001133578146229504303, 0.001700367219344248214, 0.002267156292458992559, 0.002550550829016364190, 0.002833945365573736688, 0.003117339902131108318, 0.003400734438688480382, 0.003967523511803231449, 0.004250918048360603080, 0.004534312584917973843 ),
 .UNSPECIFIED. ) ;
#727 = CARTESIAN_POINT ( 'NONE',  ( 24.98959805026393610, 21.90907162514974971, -0.7253979358229207808 ) ) ;
#728 = CARTESIAN_POINT ( 'NONE',  ( -24.95791457634231847, 20.64999999999999858, -1.449999999999912692 ) ) ;
#729 = CARTESIAN_POINT ( 'NONE',  ( 24.96019758259796717, 21.02999933591250681, 1.412008383821663049 ) ) ;
#730 = CARTESIAN_POINT ( 'NONE',  ( 0.7293505808865153872, 19.38262014275639800, -24.98996879196699794 ) ) ;
#731 = CIRCLE ( 'NONE', #902, 25.00000000000000000 ) ;
#732 = B_SPLINE_CURVE_WITH_KNOTS ( 'NONE', 3,
 ( #103, #177, #388, #533, #675, #317, #903, #250, #832, #585, #885, #863, #484, #238 ),
 .UNSPECIFIED., .F., .F.,
 ( 4, 2, 2, 2, 2, 2, 4 ),
 ( 0.004534535840398545153, 0.005101513538384460505, 0.005668491236370375858, 0.005951980085363330064, 0.006235468934356283403, 0.006518957783349237610, 0.006802446632342191817 ),
 .UNSPECIFIED. ) ;
#733 = DIRECTION ( 'NONE',  ( -0.000000000000000000, -1.000000000000000000, -0.000000000000000000 ) ) ;
#734 = CARTESIAN_POINT ( 'NONE',  ( 0.000000000000000000, 30.00000000000000000, -22.50000000000000355 ) ) ;
#735 = ORIENTED_EDGE ( 'NONE', *, *, #641, .F. ) ;
#736 = AXIS2_PLACEMENT_3D ( 'NONE', #649, #431, #875 ) ;
#737 = CARTESIAN_POINT ( 'NONE',  ( 0.3753831508988147436, 19.24624576300756473, 24.99735360801731687 ) ) ;
#738 = CARTESIAN_POINT ( 'NONE',  ( -0.1892497742772819014, 22.09999999999999787, 22.50000000000000711 ) ) ;
#739 = CARTESIAN_POINT ( 'NONE',  ( 1.376053105694830414, 21.11692108155018133, 22.45791186655730698 ) ) ;
#740 = VERTEX_POINT ( 'NONE', #259 ) ;
#741 = VERTEX_POINT ( 'NONE', #545 ) ;
#742 = DIRECTION ( 'NONE',  ( -0.000000000000000000, -1.000000000000000000, -0.000000000000000000 ) ) ;
#743 = CARTESIAN_POINT ( 'NONE',  ( 0.000000000000000000, 0.000000000000000000, 0.000000000000000000 ) ) ;
#744 = CARTESIAN_POINT ( 'NONE',  ( 1.403461316679976312, 21.02652338947625665, 24.96058173960424398 ) ) ;
#745 = CARTESIAN_POINT ( 'NONE',  ( -1.450000000000000844, 20.83923928996382102, -24.95791457634231847 ) ) ;
#746 = ORIENTED_EDGE ( 'NONE', *, *, #931, .T. ) ;
#747 = CARTESIAN_POINT ( 'NONE',  ( 0.1899235604805814270, 19.20938641231337840, 24.99945057307079566 ) ) ;
#748 = CARTESIAN_POINT ( 'NONE',  ( 3.061616997868383043E-15, 110.0000000000000000, 25.00000000000000000 ) ) ;
#749 = CARTESIAN_POINT ( 'NONE',  ( 3.061616970775897547E-15, 22.09999999999999787, 25.00000000000000000 ) ) ;
#750 = ORIENTED_EDGE ( 'NONE', *, *, #523, .F. ) ;
#751 = LINE ( 'NONE', #526, #214 ) ;
#752 = CARTESIAN_POINT ( 'NONE',  ( -1.403718639877119534, 21.02551048378317589, 22.45617766220354738 ) ) ;
#753 = ADVANCED_FACE ( 'NONE', ( #841, #185 ), #473, .F. ) ;
#754 = ORIENTED_EDGE ( 'NONE', *, *, #338, .T. ) ;
#755 = DIRECTION ( 'NONE',  ( 1.000000000000000000, -0.000000000000000000, -3.491481338843133750E-15 ) ) ;
#756 = ORIENTED_EDGE ( 'NONE', *, *, #523, .T. ) ;
#757 = CARTESIAN_POINT ( 'NONE',  ( -1.449999999999999956, 20.64999999999999858, 22.45322916642504296 ) ) ;
#758 = CARTESIAN_POINT ( 'NONE',  ( -24.99734299331395349, 22.05356634839440844, 0.3761551069321045770 ) ) ;
#759 = CYLINDRICAL_SURFACE ( 'NONE', #810, 1.449999999999999956 ) ;
#760 = CARTESIAN_POINT ( 'NONE',  ( -1.152938114264293157, 19.76560443960371316, -22.47050283019549966 ) ) ;
#761 = ORIENTED_EDGE ( 'NONE', *, *, #152, .T. ) ;
#762 = CARTESIAN_POINT ( 'NONE',  ( -1.449999999999999956, 20.64999999999999858, 22.45322916642504296 ) ) ;
#763 = CARTESIAN_POINT ( 'NONE',  ( -1.403453192947977879, 20.27342902944117142, -24.96058220541656425 ) ) ;
#764 = CARTESIAN_POINT ( 'NONE',  ( -24.99944974357919847, 22.09060030914360695, 0.1901628462966274968 ) ) ;
#765 = ORIENTED_EDGE ( 'NONE', *, *, #42, .F. ) ;
#766 = CARTESIAN_POINT ( 'NONE',  ( 0.000000000000000000, 0.000000000000000000, 0.000000000000000000 ) ) ;
#767 = B_SPLINE_CURVE_WITH_KNOTS ( 'NONE', 3,
 ( #688, #866, #67, #329, #927, #909, #549, #618, #770, #2, #122, #183 ),
 .UNSPECIFIED., .F., .F.,
 ( 4, 2, 2, 2, 2, 4 ),
 ( 0.006802122049170374225, 0.007368488679565489245, 0.007651671994763047623, 0.007934855309960605133, 0.008501221940355720152, 0.009067588570750835172 ),
 .UNSPECIFIED. ) ;
#768 = AXIS2_PLACEMENT_3D ( 'NONE', #907, #487, #132 ) ;
#769 = CARTESIAN_POINT ( 'NONE',  ( 22.49704324137920253, 22.05349385927936723, 0.3763439388504602467 ) ) ;
#770 = CARTESIAN_POINT ( 'NONE',  ( 0.7304096891446330009, 21.91673981543154071, -24.98993606733653650 ) ) ;
#771 = VERTEX_POINT ( 'NONE', #124 ) ;
#772 = DIRECTION ( 'NONE',  ( 0.000000000000000000, -0.000000000000000000, 1.000000000000000000 ) ) ;
#773 = CARTESIAN_POINT ( 'NONE',  ( -24.95791457634230781, 20.64999999999999858, 1.450000000000086997 ) ) ;
#774 = CARTESIAN_POINT ( 'NONE',  ( -1.449999999999999734, 20.55542351747135044, -24.95791457634230781 ) ) ;
#775 = CARTESIAN_POINT ( 'NONE',  ( -24.99580037969376889, 22.02617301739971367, 0.4665560388045560947 ) ) ;
#776 = ORIENTED_EDGE ( 'NONE', *, *, #364, .T. ) ;
#777 = CARTESIAN_POINT ( 'NONE',  ( -0.3793728428864113211, 19.23765324205508875, 22.49748755104327103 ) ) ;
#778 = CARTESIAN_POINT ( 'NONE',  ( -24.99186119594444122, 19.34733028443298153, 0.6438671460102460831 ) ) ;
#779 = EDGE_CURVE ( 'NONE', #904, #277, #898, .T. ) ;
#780 = VECTOR ( 'NONE', #261, 1000.000000000000000 ) ;
#781 = B_SPLINE_CURVE_WITH_KNOTS ( 'NONE', 3,
 ( #925, #791, #857, #332, #621, #920, #267, #408, #85, #224, #516, #149 ),
 .UNSPECIFIED., .F., .F.,
 ( 4, 2, 2, 2, 2, 4 ),
 ( 0.006802121818967442855, 0.007368488447330390038, 0.007651671761511861895, 0.007934855075693332885, 0.008501221704056276599, 0.009067588332419220312 ),
 .UNSPECIFIED. ) ;
#782 = CARTESIAN_POINT ( 'NONE',  ( 22.45322916642505007, 20.83925014523461883, 1.449999999999921352 ) ) ;
#783 = CARTESIAN_POINT ( 'NONE',  ( -22.49999563084826093, 22.09993220281347703, -0.1897217581096385108 ) ) ;
#784 = ORIENTED_EDGE ( 'NONE', *, *, #364, .F. ) ;
#785 = CARTESIAN_POINT ( 'NONE',  ( 24.98448434049471345, 19.49687088874227925, 0.8841492822954157838 ) ) ;
#786 = CARTESIAN_POINT ( 'NONE',  ( -0.09585348762463283268, 22.10000000000000497, -22.50000000000000711 ) ) ;
#787 = CARTESIAN_POINT ( 'NONE',  ( 1.411965059965109459, 20.26979124599662185, 22.45576986039946377 ) ) ;
#788 = CARTESIAN_POINT ( 'NONE',  ( -0.1900904856943815280, 22.09058984396375891, -24.99944920192768549 ) ) ;
#789 = CARTESIAN_POINT ( 'NONE',  ( -1.449999999999999956, 20.64999999999999858, -25.00000000000000000 ) ) ;
#790 = FACE_BOUND ( 'NONE', #441, .T. ) ;
#791 = CARTESIAN_POINT ( 'NONE',  ( -0.1912511380817890905, 19.20000000000000284, 25.00000000000000355 ) ) ;
#792 = SURFACE_STYLE_USAGE ( .BOTH. , #501 ) ;
#793 = CARTESIAN_POINT ( 'NONE',  ( 22.48273650226528986, 19.49078238683515707, -0.8913427220465627299 ) ) ;
#794 = CARTESIAN_POINT ( 'NONE',  ( -0.6428399733338517885, 19.34681407760310989, 22.49098651092256773 ) ) ;
#795 = CARTESIAN_POINT ( 'NONE',  ( -25.00000000000009237, 20.64999999999999858, 8.728703347107864943E-14 ) ) ;
#796 = CARTESIAN_POINT ( 'NONE',  ( 22.49533336187402099, 19.27383216290139600, 0.4665720677028259988 ) ) ;
#797 = CARTESIAN_POINT ( 'NONE',  ( -22.47049647028405417, 19.75917606119071479, 1.159598406614953170 ) ) ;
#798 = EDGE_CURVE ( 'NONE', #740, #240, #577, .T. ) ;
#799 = ADVANCED_FACE ( 'NONE', ( #511 ), #76, .F. ) ;
#800 = CARTESIAN_POINT ( 'NONE',  ( 22.47046109557001614, 19.75982993881875771, 1.160495818762102171 ) ) ;
#801 = DIRECTION ( 'NONE',  ( 0.000000000000000000, 0.000000000000000000, 1.000000000000000000 ) ) ;
#802 = CARTESIAN_POINT ( 'NONE',  ( 22.45322916642503586, 20.55416840616723206, -1.450000000000078559 ) ) ;
#803 = DIRECTION ( 'NONE',  ( 0.000000000000000000, 1.000000000000000000, 0.000000000000000000 ) ) ;
#804 = CARTESIAN_POINT ( 'NONE',  ( -25.00000000000008882, 20.64999999999999858, 1.450000000000087219 ) ) ;
#805 = ADVANCED_FACE ( 'NONE', ( #359, #790 ), #427, .T. ) ;
#806 = AXIS2_PLACEMENT_3D ( 'NONE', #548, #342, #494 ) ;
#807 = EDGE_CURVE ( 'NONE', #27, #815, #298, .T. ) ;
#808 = DIRECTION ( 'NONE',  ( 1.000000000000000000, -0.000000000000000000, -3.491481338843133750E-15 ) ) ;
#809 = CARTESIAN_POINT ( 'NONE',  ( 1.092450675338771271, 21.60811840158070751, -22.47356286373414846 ) ) ;
#810 = AXIS2_PLACEMENT_3D ( 'NONE', #928, #135, #695 ) ;
#811 = VERTEX_POINT ( 'NONE', #728 ) ;
#812 = CARTESIAN_POINT ( 'NONE',  ( -25.00000000000009592, 20.64999999999999858, -1.449999999999912470 ) ) ;
#813 = CARTESIAN_POINT ( 'NONE',  ( -25.00000000000009592, 20.64999999999999858, -1.449999999999912470 ) ) ;
#814 = CARTESIAN_POINT ( 'NONE',  ( 1.440519345117051930, 20.84073175684712353, 22.45384708227017256 ) ) ;
#815 = VERTEX_POINT ( 'NONE', #18 ) ;
#816 = ORIENTED_EDGE ( 'NONE', *, *, #464, .F. ) ;
#817 = VECTOR ( 'NONE', #601, 1000.000000000000000 ) ;
#818 = FACE_OUTER_BOUND ( 'NONE', #309, .T. ) ;
#819 = ORIENTED_EDGE ( 'NONE', *, *, #524, .T. ) ;
#820 = B_SPLINE_CURVE_WITH_KNOTS ( 'NONE', 3,
 ( #683, #358, #729, #651, #77, #227, #874, #72, #653, #867, #715, #219, #7, #291, #17, #144, #727, #510, #430, #216, #362, #14, #569, #365 ),
 .UNSPECIFIED., .F., .F.,
 ( 4, 2, 2, 2, 2, 2, 2, 2, 2, 2, 2, 4 ),
 ( 0.004534312584917973843, 0.005100972053355636374, 0.005667631521793298904, 0.005950961256012125833, 0.006234290990230952761, 0.006517620724449780557, 0.006800950458668607486, 0.007367609927106262210, 0.007650939661325087404, 0.007934269395543914333, 0.008500928863981564720, 0.009067588332419215108 ),
 .UNSPECIFIED. ) ;
#821 = CARTESIAN_POINT ( 'NONE',  ( 0.000000000000000000, 30.00000000000000000, 0.000000000000000000 ) ) ;
#822 = CARTESIAN_POINT ( 'NONE',  ( 0.7304265444999805679, 21.91672972985865187, -22.48881682936840321 ) ) ;
#823 = CARTESIAN_POINT ( 'NONE',  ( 1.266942606994497345, 21.38041767450247121, 24.96798276591160004 ) ) ;
#824 = CARTESIAN_POINT ( 'NONE',  ( -1.411975452424494071, 21.03015645124182598, -24.96019960274404426 ) ) ;
#825 = VERTEX_POINT ( 'NONE', #436 ) ;
#826 = CLOSED_SHELL ( 'NONE', ( #883, #600, #33, #409, #172, #105, #753, #805, #265, #226, #799, #16, #534, #109 ) ) ;
#827 = ORIENTED_EDGE ( 'NONE', *, *, #698, .F. ) ;
#828 = EDGE_CURVE ( 'NONE', #465, #468, #457, .T. ) ;
#829 = CARTESIAN_POINT ( 'NONE',  ( 1.153626259444181734, 21.53351688108220685, -22.47046758050769100 ) ) ;
#830 = CARTESIAN_POINT ( 'NONE',  ( 0.9575942814636402289, 21.74301074617478591, 24.98174535278514341 ) ) ;
#831 = ORIENTED_EDGE ( 'NONE', *, *, #559, .T. ) ;
#832 = CARTESIAN_POINT ( 'NONE',  ( 1.303029608720740251, 20.00685253935226626, -22.46226708496149627 ) ) ;
#833 = PRODUCT_RELATED_PRODUCT_CATEGORY ( 'part', '', ( #411 ) ) ;
#834 = AXIS2_PLACEMENT_3D ( 'NONE', #553, #194, #410 ) ;
#835 = DIRECTION ( 'NONE',  ( 0.000000000000000000, 1.000000000000000000, 0.000000000000000000 ) ) ;
#836 = CARTESIAN_POINT ( 'NONE',  ( 1.403457206642568122, 21.02654011187321714, 22.45619408196216327 ) ) ;
#837 = ORIENTED_EDGE ( 'NONE', *, *, #195, .T. ) ;
#838 = CARTESIAN_POINT ( 'NONE',  ( -1.376034809259528258, 20.18303961012415115, -22.45791294019945283 ) ) ;
#839 = CARTESIAN_POINT ( 'NONE',  ( -22.49100579607548056, 21.95351700147079299, 0.6421610678808779005 ) ) ;
#840 = VERTEX_POINT ( 'NONE', #748 ) ;
#841 = FACE_OUTER_BOUND ( 'NONE', #923, .T. ) ;
#842 = ORIENTED_EDGE ( 'NONE', *, *, #206, .F. ) ;
#843 = CYLINDRICAL_SURFACE ( 'NONE', #529, 1.449999999999999956 ) ;
#844 =( NAMED_UNIT ( * ) PLANE_ANGLE_UNIT ( ) SI_UNIT ( $, .RADIAN. ) );
#845 = CARTESIAN_POINT ( 'NONE',  ( 2.755455271706670665E-15, 22.09999999999999787, 22.50000000000000355 ) ) ;
#846 = CARTESIAN_POINT ( 'NONE',  ( -24.95791457634232557, 20.74582650910053516, -1.449999999999912914 ) ) ;
#847 = ORIENTED_EDGE ( 'NONE', *, *, #705, .F. ) ;
#848 = CARTESIAN_POINT ( 'NONE',  ( -0.09462514781696224064, 19.19999999999999929, -22.50000000000000711 ) ) ;
#849 = CARTESIAN_POINT ( 'NONE',  ( -1.449999999999999956, 20.64999999999999858, 25.00000000000000000 ) ) ;
#850 = UNCERTAINTY_MEASURE_WITH_UNIT (LENGTH_MEASURE( 1.000000000000000082E-05 ), #915, 'distance_accuracy_value', 'NONE');
#851 = APPLICATION_CONTEXT ( 'automotive_design' ) ;
#852 = CARTESIAN_POINT ( 'NONE',  ( 0.1899444107658575243, 19.20938914976636269, 22.49938935338372659 ) ) ;
#853 = EDGE_CURVE ( 'NONE', #741, #893, #34, .T. ) ;
#854 = CARTESIAN_POINT ( 'NONE',  ( -24.99771244955710259, 22.06185725580960622, -0.3805738709574134626 ) ) ;
#855 = DIRECTION ( 'NONE',  ( 0.000000000000000000, 0.000000000000000000, 1.000000000000000000 ) ) ;
#856 = CARTESIAN_POINT ( 'NONE',  ( 2.755455297896063857E-15, 19.19999999999999929, 22.50000000000000355 ) ) ;
#857 = CARTESIAN_POINT ( 'NONE',  ( -0.3793420147593405956, 19.23764281297892254, 24.99773932581716096 ) ) ;
#858 = CARTESIAN_POINT ( 'NONE',  ( -1.093010953501221794, 19.69240595349674905, -24.97618694090478897 ) ) ;
#859 = CARTESIAN_POINT ( 'NONE',  ( -22.48884563634357292, 21.91723634275234289, -0.7295813091047390619 ) ) ;
#860 = DIRECTION ( 'NONE',  ( -0.000000000000000000, -0.000000000000000000, -1.000000000000000000 ) ) ;
#861 = DIRECTION ( 'NONE',  ( 0.000000000000000000, 1.000000000000000000, 0.000000000000000000 ) ) ;
#862 = FACE_OUTER_BOUND ( 'NONE', #522, .T. ) ;
#863 = CARTESIAN_POINT ( 'NONE',  ( 1.440610853894399135, 20.46005563602241750, -22.45384112872191196 ) ) ;
#864 = AXIS2_PLACEMENT_3D ( 'NONE', #696, #861, #57 ) ;
#865 = CARTESIAN_POINT ( 'NONE',  ( 2.755455297896063857E-15, 19.19999999999999929, 22.50000000000000355 ) ) ;
#866 = CARTESIAN_POINT ( 'NONE',  ( 1.449999999999999734, 20.84125110532286129, -24.95791457634231136 ) ) ;
#867 = CARTESIAN_POINT ( 'NONE',  ( 24.99576334194228266, 22.02550259792091225, 0.4685145597305365173 ) ) ;
#868 = CARTESIAN_POINT ( 'NONE',  ( -22.45322916642504651, 20.64999999999999858, -1.449999999999921352 ) ) ;
#869 = CARTESIAN_POINT ( 'NONE',  ( 0.000000000000000000, 0.000000000000000000, -25.00000000000000000 ) ) ;
#870 = CARTESIAN_POINT ( 'NONE',  ( 22.47964286243462340, 21.74147017358903256, 0.9592324008342689723 ) ) ;
#871 = CARTESIAN_POINT ( 'NONE',  ( 1.159312797482213053, 19.75878237571665963, 24.97346393468156123 ) ) ;
#872 = CARTESIAN_POINT ( 'NONE',  ( 1.440613590095280117, 20.46007647023123965, -24.95846496159966676 ) ) ;
#873 = DIRECTION ( 'NONE',  ( -2.392722035830078873E-15, 0.000000000000000000, -1.000000000000000000 ) ) ;
#874 = CARTESIAN_POINT ( 'NONE',  ( 24.98446490105518336, 21.80271691475244111, 0.8847209648861481535 ) ) ;
#875 = DIRECTION ( 'NONE',  ( 0.000000000000000000, 0.000000000000000000, -1.000000000000000000 ) ) ;
#876 = EDGE_CURVE ( 'NONE', #825, #888, #175, .T. ) ;
#877 = EDGE_CURVE ( 'NONE', #27, #603, #751, .T. ) ;
#878 = CARTESIAN_POINT ( 'NONE',  ( 22.48275884454714557, 19.49687701940530360, 0.8841568928652856485 ) ) ;
#879 = CARTESIAN_POINT ( 'NONE',  ( -22.49750484562735409, 19.23738105445973545, -0.3784141784448575851 ) ) ;
#880 = CARTESIAN_POINT ( 'NONE',  ( 22.45322916642504651, 20.55535321824520167, 1.449999999999921796 ) ) ;
#881 = CARTESIAN_POINT ( 'NONE',  ( -22.46444146615936432, 19.91923008135478312, -1.266546140921948949 ) ) ;
#882 = EDGE_CURVE ( 'NONE', #538, #771, #352, .T. ) ;
#883 = ADVANCED_FACE ( 'NONE', ( #230 ), #593, .F. ) ;
#884 = CARTESIAN_POINT ( 'NONE',  ( -25.00000000000009237, 20.64999999999999858, 8.728703347107864943E-14 ) ) ;
#885 = CARTESIAN_POINT ( 'NONE',  ( 1.403748754297359236, 20.27459631251969441, -22.45617577641060691 ) ) ;
#886 = VERTEX_POINT ( 'NONE', #170 ) ;
#887 = DIRECTION ( 'NONE',  ( 0.000000000000000000, 0.000000000000000000, -1.000000000000000000 ) ) ;
#888 = VERTEX_POINT ( 'NONE', #384 ) ;
#889 = CARTESIAN_POINT ( 'NONE',  ( 3.061616970775897547E-15, 22.09999999999999787, 25.00000000000000000 ) ) ;
#890 =( NAMED_UNIT ( * ) PLANE_ANGLE_UNIT ( ) SI_UNIT ( $, .RADIAN. ) );
#891 = CARTESIAN_POINT ( 'NONE',  ( 0.4669437473880538869, 22.02604020913181060, 24.99579304436096194 ) ) ;
#892 = CARTESIAN_POINT ( 'NONE',  ( 1.449999999999999956, 20.64999999999999858, 22.45322916642504296 ) ) ;
#893 = VERTEX_POINT ( 'NONE', #515 ) ;
#894 = B_SPLINE_CURVE_WITH_KNOTS ( 'NONE', 3,
 ( #662, #91, #22, #304, #377, #588, #164, #562, #269, #708, #859, #400, #783, #202, #624, #478, #263, #839, #276, #543, #281, #324, #568, #134, #922, #917, #612, #60 ),
 .UNSPECIFIED., .F., .F.,
 ( 4, 2, 2, 2, 2, 2, 2, 2, 2, 2, 2, 2, 2, 4 ),
 ( 0.000000000000000000, 0.0002834084802660877169, 0.0005668169605321754338, 0.0008502254407982630423, 0.001133633921064350868, 0.001700450881596518495, 0.002267267842128686556, 0.002550676322394770587, 0.002834084802660855051, 0.003117493282926939082, 0.003400901763193023113, 0.003967718723725184235, 0.004251127203991260026, 0.004534535684257335816 ),
 .UNSPECIFIED. ) ;
#895 = CARTESIAN_POINT ( 'NONE',  ( -0.3801565038279690611, 22.06197545063060872, 24.99771921258936658 ) ) ;
#896 = CARTESIAN_POINT ( 'NONE',  ( 0.1906379056762825819, 22.09053592486038653, 24.99944601547758438 ) ) ;
#897 = VERTEX_POINT ( 'NONE', #25 ) ;
#898 = B_SPLINE_CURVE_WITH_KNOTS ( 'NONE', 3,
 ( #856, #199, #777, #794, #292, #439, #579, #356, #366, #15, #284, #8 ),
 .UNSPECIFIED., .F., .F.,
 ( 4, 2, 2, 2, 2, 4 ),
 ( 0.006802446281262100602, 0.007368842531401109328, 0.007652040656470611088, 0.007935238781540112848, 0.008501635031679111165, 0.009068031281818109482 ),
 .UNSPECIFIED. ) ;
#899 = APPLICATION_PROTOCOL_DEFINITION ( 'draft international standard', 'automotive_design', 1998, #851 ) ;
#900 = CARTESIAN_POINT ( 'NONE',  ( -1.450000000000000400, 20.74585349424560476, 22.45322916642505007 ) ) ;
#901 = ORIENTED_EDGE ( 'NONE', *, *, #853, .F. ) ;
#902 = AXIS2_PLACEMENT_3D ( 'NONE', #556, #910, #855 ) ;
#903 = CARTESIAN_POINT ( 'NONE',  ( 1.153137743557475670, 19.76582386402500191, -22.47049299859541804 ) ) ;
#904 = VERTEX_POINT ( 'NONE', #243 ) ;
#905 = ORIENTED_EDGE ( 'NONE', *, *, #828, .T. ) ;
#906 = EDGE_LOOP ( 'NONE', ( #746, #546 ) ) ;
#907 = CARTESIAN_POINT ( 'NONE',  ( 0.000000000000000000, 30.00000000000000000, 0.000000000000000000 ) ) ;
#908 = CARTESIAN_POINT ( 'NONE',  ( 0.7273330189168936144, 21.90793846471579798, 24.98954100522043120 ) ) ;
#909 = CARTESIAN_POINT ( 'NONE',  ( 1.153634240854836124, 21.53350606491351016, -24.97342373576992358 ) ) ;
#910 = DIRECTION ( 'NONE',  ( 0.000000000000000000, 1.000000000000000000, 0.000000000000000000 ) ) ;
#911 = DIRECTION ( 'NONE',  ( -0.000000000000000000, -1.000000000000000000, -0.000000000000000000 ) ) ;
#912 = ORIENTED_EDGE ( 'NONE', *, *, #64, .F. ) ;
#913 = B_SPLINE_CURVE_WITH_KNOTS ( 'NONE', 3,
 ( #20, #669, #28, #310, #597, #476, #232, #302, #375, #664, #24, #895, #657, #889 ),
 .UNSPECIFIED., .F., .F.,
 ( 4, 2, 2, 2, 2, 2, 4 ),
 ( 0.000000000000000000, 0.0002834591844572109643, 0.0005669183689144219286, 0.0008503775533716329471, 0.001133836737828843857, 0.001700755106743265460, 0.002267673475657686847 ),
 .UNSPECIFIED. ) ;
#914 = CYLINDRICAL_SURFACE ( 'NONE', #655, 22.50000000000000355 ) ;
#915 =( LENGTH_UNIT ( ) NAMED_UNIT ( * ) SI_UNIT ( .MILLI., .METRE. ) );
#916 = CARTESIAN_POINT ( 'NONE',  ( -0.3765234332479674983, 19.24653869305474174, -24.99733708654323650 ) ) ;
#917 = CARTESIAN_POINT ( 'NONE',  ( -22.45384736995398356, 20.84077539386463940, 1.440514968523923800 ) ) ;
#918 = VERTEX_POINT ( 'NONE', #239 ) ;
#919 = LINE ( 'NONE', #266, #38 ) ;
#920 = CARTESIAN_POINT ( 'NONE',  ( -0.8835062644322594361, 19.49636590963944371, 24.98450758825665474 ) ) ;
#921 = CARTESIAN_POINT ( 'NONE',  ( 1.267372412472136167, 19.92063644505114084, 22.46439432795578739 ) ) ;
#922 = CARTESIAN_POINT ( 'NONE',  ( -22.45619540389767366, 21.02662389163469925, 1.403436165165919292 ) ) ;
#923 = EDGE_LOOP ( 'NONE', ( #842, #563 ) ) ;
#924 = CARTESIAN_POINT ( 'NONE',  ( 24.95791457634230781, 20.64999999999999858, -1.450000000000086775 ) ) ;
#925 = CARTESIAN_POINT ( 'NONE',  ( 3.061616997402319681E-15, 19.19999999999999929, 25.00000000000000000 ) ) ;
#926 = CARTESIAN_POINT ( 'NONE',  ( 22.45576716162549502, 21.03001501673176676, 1.412004286300293732 ) ) ;
#927 = CARTESIAN_POINT ( 'NONE',  ( 1.258679217508735571, 21.37607269320864489, -24.96834979880329897 ) ) ;
#928 = CARTESIAN_POINT ( 'NONE',  ( 0.000000000000000000, 20.64999999999999858, 25.00000000000000000 ) ) ;
#929 = CARTESIAN_POINT ( 'NONE',  ( 24.99944974357920202, 19.20939969085638666, 0.1901628462964528310 ) ) ;
#930 = LINE ( 'NONE', #849, #680 ) ;
#931 = EDGE_CURVE ( 'NONE', #893, #102, #474, .T. ) ;
ENDSEC;
END-ISO-10303-21;
